<svg width="41" height="41" viewBox="0 0 41 41" fill="none" xmlns="http://www.w3.org/2000/svg">
<g filter="url(#filter0_d_887_13181)">
<mask id="mask0_887_13181" style="mask-type:luminance" maskUnits="userSpaceOnUse" x="3" y="0" width="34" height="33">
<path d="M36.939 0H3.93896V33H36.939V0Z" fill="white"/>
</mask>
<g mask="url(#mask0_887_13181)">
<mask id="mask1_887_13181" style="mask-type:luminance" maskUnits="userSpaceOnUse" x="4" y="0" width="33" height="33">
<path d="M4 0.0332031H36.8886V32.9686H4V0.0332031Z" fill="white"/>
</mask>
<g mask="url(#mask1_887_13181)">
<path d="M25.7081 2.64593C30.8634 2.64049 33.4823 2.63458 33.5616 2.63245C34.8079 2.59413 35.7579 2.66722 36.523 3.53053C37.0182 4.08613 36.8477 5.16681 36.8569 5.62047C36.8758 6.5415 36.0984 7.17042 35.039 7.2357C34.9594 7.24161 34.8943 7.29341 34.8871 7.35869C33.8277 15.4613 32.9291 22.7158 32.1941 29.1207C32.0586 30.2877 31.8648 31.0339 31.6128 31.3587C31.1439 31.9606 30.5252 32.4105 29.7573 32.7085C29.3068 32.8835 28.5133 32.9663 27.3813 32.9604C21.9224 32.9316 17.5603 32.9316 14.2905 32.9585C12.7014 32.972 11.6814 32.8835 11.2309 32.6953C10.3932 32.3473 9.77019 31.8395 9.35677 31.1742C9.15839 30.8568 8.99532 30.1455 8.8644 29.0379C7.80243 20.0797 6.91559 12.8752 6.20618 7.42397C6.1967 7.35302 6.12694 7.29909 6.04052 7.2953C4.12903 7.20874 3.90252 5.94735 4.02855 4.57077C4.1431 3.30536 4.99032 2.66911 6.56562 2.66154C7.149 2.65775 10.0314 2.64995 15.215 2.63836C15.2873 2.63836 15.3456 2.59034 15.343 2.53074C15.3269 1.45975 15.8055 0.705948 16.7831 0.273344C17.1589 0.10612 17.8008 0.0292497 18.7086 0.0389473C20.2443 0.0562136 21.4231 0.0562136 22.2445 0.0389473C24.3521 -0.00741168 25.4583 0.823265 25.5588 2.52885C25.5634 2.59413 25.6285 2.64593 25.7081 2.64593ZM16.7808 2.63245L24.1187 2.64427C24.1583 2.64427 24.191 2.61707 24.191 2.58443L24.1933 2.30581C24.1933 1.67499 23.6194 1.16173 22.9071 1.16173L18.0015 1.15393C17.2898 1.15393 16.7107 1.66364 16.7107 2.29422L16.7084 2.57308C16.7084 2.60572 16.7412 2.63245 16.7808 2.63245ZM6.02416 6.19948H34.8567C35.2491 6.19948 35.5687 5.93599 35.5687 5.6129V4.82456C35.5687 4.21125 34.9221 3.71526 34.124 3.71526H6.75711C5.9587 3.71526 5.31216 4.21125 5.31216 4.82456V5.6129C5.31216 5.93599 5.63198 6.19948 6.02416 6.19948ZM20.5337 31.8471C23.206 31.8471 25.6638 31.8452 27.9018 31.8433C28.9824 31.8414 29.7619 31.551 30.2358 30.9684C30.5089 30.6318 30.7096 29.9284 30.8356 28.8534C31.5263 22.9024 32.404 15.7575 33.4703 7.42019C33.4777 7.36082 33.4215 7.30879 33.3491 7.30879C27.4889 7.305 23.2201 7.30098 20.5409 7.30098C17.8617 7.30098 13.5926 7.30098 7.73238 7.305C7.66003 7.305 7.60405 7.3568 7.61123 7.41641C8.67291 15.7534 9.54798 22.8986 10.2344 28.8496C10.3605 29.9244 10.5611 30.6302 10.8342 30.9646C11.3082 31.5474 12.0853 31.8395 13.1683 31.8414C15.4062 31.8433 17.8617 31.8452 20.5337 31.8471Z" fill="#09FFF3"/>
</g>
<path d="M21.1708 27.8915C21.1708 28.1876 20.8812 28.426 20.522 28.426H20.4706C20.1112 28.426 19.8218 28.1876 19.8218 27.8915V10.9752C19.8218 10.6791 20.1112 10.4404 20.4706 10.4404H20.522C20.8812 10.4404 21.1708 10.6791 21.1708 10.9752V27.8915Z" fill="#09FFF3"/>
<path d="M26.7073 27.9474C26.6743 28.257 26.3427 28.4838 25.9689 28.4578L25.9548 28.4569C25.5796 28.4299 25.3017 28.157 25.3353 27.8485L27.1219 11.0271C27.1549 10.7175 27.4862 10.4907 27.86 10.5167L27.8741 10.5179C28.2496 10.5446 28.5272 10.8175 28.4936 11.126L26.7073 27.9474Z" fill="#09FFF3"/>
<path d="M15.7238 27.8095C15.7565 28.1203 15.4786 28.3932 15.1034 28.4207L15.0896 28.4219C14.7132 28.4491 14.3819 28.2201 14.3477 27.9107L12.5359 11.1837C12.5028 10.8731 12.7808 10.5999 13.156 10.5725L13.1698 10.5715C13.5464 10.5443 13.8778 10.7731 13.9119 11.0827L15.7238 27.8095Z" fill="#09FFF3"/>
<mask id="mask2_887_13181" style="mask-type:luminance" maskUnits="userSpaceOnUse" x="16" y="14" width="9" height="8">
<path d="M16.0205 14.3242H24.8358V21.5867H16.0205V14.3242Z" fill="white"/>
</mask>
<g mask="url(#mask2_887_13181)">
<path d="M23.8689 14.334L24.8735 15.1616L17.0378 21.6171L16.0332 20.7892L23.8689 14.334Z" fill="#09FFF3"/>
<path d="M24.8726 20.7904L23.8681 21.618L16.0332 15.1613L17.0378 14.334L24.8726 20.7904Z" fill="#09FFF3"/>
</g>
</g>
</g>
<defs>
<filter id="filter0_d_887_13181" x="-0.0610352" y="0" width="41" height="41" filterUnits="userSpaceOnUse" color-interpolation-filters="sRGB">
<feFlood flood-opacity="0" result="BackgroundImageFix"/>
<feColorMatrix in="SourceAlpha" type="matrix" values="0 0 0 0 0 0 0 0 0 0 0 0 0 0 0 0 0 0 127 0" result="hardAlpha"/>
<feOffset dy="4"/>
<feGaussianBlur stdDeviation="2"/>
<feComposite in2="hardAlpha" operator="out"/>
<feColorMatrix type="matrix" values="0 0 0 0 0 0 0 0 0 0 0 0 0 0 0 0 0 0 0.25 0"/>
<feBlend mode="normal" in2="BackgroundImageFix" result="effect1_dropShadow_887_13181"/>
<feBlend mode="normal" in="SourceGraphic" in2="effect1_dropShadow_887_13181" result="shape"/>
</filter>
</defs>
</svg>
