<svg width="300" height="240" viewBox="0 0 300 240" fill="none" xmlns="http://www.w3.org/2000/svg">
<rect x="0.5" y="0.5" width="299" height="239" rx="19.5" fill="#00FFF7"/>
<rect x="0.5" y="0.5" width="299" height="239" rx="19.5" stroke="#011E22"/>
<rect x="41.5" y="45.5" width="217" height="47" rx="18.5" stroke="#011E22" stroke-width="3"/>
<line x1="60" y1="81.5" x2="240" y2="81.5" stroke="#011E22" stroke-width="3"/>
<rect x="229.819" y="70.1523" width="7" height="33" transform="rotate(-127.672 229.819 70.1523)" fill="#011E22"/>
<path d="M222.139 71.6603L225.63 65.136L229.335 69.9343L222.139 71.6603Z" fill="#011E22"/>
<path d="M256.73 49.374L252.452 43.8334L254.036 42.6111C254.473 42.2736 255.101 42.3543 255.438 42.7915L258.494 46.7491C258.831 47.1862 258.751 47.8142 258.314 48.1517L256.73 49.374Z" fill="#011E22"/>
<path d="M89.1539 128.455V143H86.0787V128.455H89.1539ZM95.6472 143.178C94.8186 143.178 94.0681 142.964 93.3958 142.538C92.7282 142.107 92.1979 141.475 91.8049 140.642C91.4166 139.804 91.2225 138.777 91.2225 137.56C91.2225 136.31 91.4237 135.27 91.8262 134.442C92.2286 133.608 92.7637 132.986 93.4313 132.574C94.1036 132.157 94.8399 131.949 95.6401 131.949C96.2509 131.949 96.7599 132.053 97.1671 132.261C97.579 132.465 97.9105 132.721 98.1614 133.028C98.4171 133.331 98.6112 133.63 98.7438 133.923H98.8361V128.455H101.855V143H98.8716V141.253H98.7438C98.6017 141.556 98.4005 141.857 98.1401 142.155C97.8844 142.448 97.5506 142.692 97.1387 142.886C96.7315 143.08 96.2343 143.178 95.6472 143.178ZM96.606 140.77C97.0937 140.77 97.5056 140.637 97.8418 140.372C98.1827 140.102 98.4431 139.726 98.623 139.243C98.8077 138.76 98.9 138.194 98.9 137.545C98.9 136.897 98.8101 136.333 98.6301 135.855C98.4502 135.377 98.1898 135.008 97.8489 134.747C97.508 134.487 97.0937 134.357 96.606 134.357C96.1088 134.357 95.6898 134.491 95.3489 134.761C95.008 135.031 94.7499 135.405 94.5748 135.884C94.3996 136.362 94.312 136.916 94.312 137.545C94.312 138.18 94.3996 138.741 94.5748 139.229C94.7547 139.712 95.0127 140.09 95.3489 140.365C95.6898 140.635 96.1088 140.77 96.606 140.77ZM109.314 143.213C108.192 143.213 107.226 142.986 106.416 142.531C105.611 142.072 104.991 141.423 104.555 140.585C104.12 139.742 103.902 138.746 103.902 137.595C103.902 136.473 104.12 135.488 104.555 134.641C104.991 133.793 105.604 133.133 106.395 132.659C107.19 132.186 108.123 131.949 109.193 131.949C109.913 131.949 110.583 132.065 111.203 132.297C111.828 132.524 112.372 132.867 112.836 133.327C113.305 133.786 113.67 134.364 113.93 135.06C114.191 135.751 114.321 136.561 114.321 137.489V138.32H105.109V136.445H111.473C111.473 136.009 111.378 135.623 111.189 135.287C110.999 134.951 110.737 134.688 110.4 134.499C110.069 134.304 109.683 134.207 109.243 134.207C108.783 134.207 108.376 134.314 108.021 134.527C107.671 134.735 107.396 135.017 107.197 135.372C106.998 135.723 106.897 136.113 106.892 136.544V138.327C106.892 138.866 106.991 139.333 107.19 139.726C107.394 140.119 107.68 140.422 108.05 140.635C108.419 140.848 108.857 140.955 109.363 140.955C109.7 140.955 110.007 140.907 110.287 140.812C110.566 140.718 110.805 140.576 111.004 140.386C111.203 140.197 111.354 139.965 111.459 139.69L114.257 139.875C114.115 140.547 113.824 141.134 113.383 141.636C112.948 142.134 112.384 142.522 111.693 142.801C111.006 143.076 110.213 143.213 109.314 143.213ZM119.321 136.693V143H116.295V132.091H119.179V134.016H119.307C119.548 133.381 119.953 132.879 120.521 132.51C121.089 132.136 121.778 131.949 122.588 131.949C123.345 131.949 124.006 132.115 124.569 132.446C125.133 132.777 125.571 133.251 125.883 133.866C126.196 134.477 126.352 135.206 126.352 136.054V143H123.327V136.594C123.331 135.926 123.161 135.405 122.815 135.031C122.47 134.652 121.994 134.463 121.388 134.463C120.98 134.463 120.621 134.551 120.308 134.726C120 134.901 119.759 135.157 119.584 135.493C119.413 135.824 119.326 136.224 119.321 136.693ZM134.539 132.091V134.364H127.97V132.091H134.539ZM129.461 129.477H132.487V139.648C132.487 139.927 132.529 140.145 132.615 140.301C132.7 140.453 132.818 140.559 132.97 140.621C133.126 140.682 133.306 140.713 133.509 140.713C133.651 140.713 133.794 140.701 133.936 140.678C134.078 140.649 134.186 140.628 134.262 140.614L134.738 142.865C134.587 142.912 134.374 142.967 134.099 143.028C133.824 143.095 133.49 143.135 133.097 143.149C132.368 143.178 131.729 143.08 131.18 142.858C130.635 142.635 130.212 142.29 129.909 141.821C129.606 141.352 129.456 140.76 129.461 140.045V129.477ZM136.51 143V132.091H139.536V143H136.51ZM138.03 130.685C137.58 130.685 137.194 130.536 136.872 130.237C136.555 129.934 136.396 129.572 136.396 129.151C136.396 128.734 136.555 128.376 136.872 128.078C137.194 127.775 137.58 127.624 138.03 127.624C138.48 127.624 138.863 127.775 139.181 128.078C139.503 128.376 139.664 128.734 139.664 129.151C139.664 129.572 139.503 129.934 139.181 130.237C138.863 130.536 138.48 130.685 138.03 130.685ZM147.826 132.091V134.364H141.093V132.091H147.826ZM142.634 143V131.303C142.634 130.512 142.788 129.856 143.096 129.335C143.408 128.814 143.834 128.424 144.374 128.163C144.914 127.903 145.527 127.773 146.214 127.773C146.678 127.773 147.101 127.808 147.485 127.879C147.873 127.95 148.162 128.014 148.351 128.071L147.812 130.344C147.693 130.306 147.546 130.27 147.371 130.237C147.201 130.204 147.026 130.188 146.846 130.188C146.401 130.188 146.09 130.292 145.915 130.5C145.74 130.704 145.653 130.99 145.653 131.359V143H142.634ZM149.674 143V132.091H152.7V143H149.674ZM151.194 130.685C150.744 130.685 150.358 130.536 150.036 130.237C149.719 129.934 149.561 129.572 149.561 129.151C149.561 128.734 149.719 128.376 150.036 128.078C150.358 127.775 150.744 127.624 151.194 127.624C151.644 127.624 152.027 127.775 152.345 128.078C152.667 128.376 152.828 128.734 152.828 129.151C152.828 129.572 152.667 129.934 152.345 130.237C152.027 130.536 151.644 130.685 151.194 130.685ZM160.052 143.213C158.935 143.213 157.974 142.976 157.169 142.503C156.369 142.025 155.753 141.362 155.322 140.514C154.896 139.667 154.683 138.691 154.683 137.588C154.683 136.471 154.898 135.491 155.329 134.648C155.765 133.8 156.383 133.14 157.183 132.666C157.983 132.188 158.935 131.949 160.038 131.949C160.99 131.949 161.823 132.122 162.538 132.467C163.253 132.813 163.819 133.298 164.236 133.923C164.652 134.548 164.882 135.282 164.925 136.125H162.069C161.989 135.58 161.776 135.143 161.43 134.811C161.089 134.475 160.642 134.307 160.088 134.307C159.619 134.307 159.21 134.435 158.859 134.69C158.514 134.941 158.244 135.308 158.05 135.791C157.855 136.274 157.758 136.859 157.758 137.545C157.758 138.241 157.853 138.833 158.042 139.321C158.237 139.809 158.509 140.18 158.859 140.436C159.21 140.692 159.619 140.82 160.088 140.82C160.434 140.82 160.744 140.749 161.018 140.607C161.298 140.464 161.527 140.259 161.707 139.989C161.892 139.714 162.013 139.385 162.069 139.001H164.925C164.877 139.835 164.65 140.569 164.243 141.203C163.84 141.833 163.284 142.325 162.574 142.68C161.863 143.036 161.023 143.213 160.052 143.213ZM169.972 143.206C169.276 143.206 168.656 143.085 168.112 142.844C167.567 142.598 167.136 142.235 166.819 141.757C166.507 141.274 166.35 140.673 166.35 139.953C166.35 139.347 166.462 138.838 166.684 138.426C166.907 138.014 167.21 137.683 167.593 137.432C167.977 137.181 168.412 136.991 168.9 136.864C169.392 136.736 169.909 136.646 170.448 136.594C171.083 136.527 171.594 136.466 171.982 136.409C172.371 136.348 172.652 136.258 172.828 136.139C173.003 136.021 173.09 135.846 173.09 135.614V135.571C173.09 135.121 172.948 134.773 172.664 134.527C172.385 134.281 171.987 134.158 171.471 134.158C170.927 134.158 170.493 134.278 170.171 134.52C169.849 134.757 169.636 135.055 169.532 135.415L166.734 135.188C166.876 134.525 167.155 133.952 167.572 133.469C167.989 132.981 168.526 132.607 169.184 132.347C169.847 132.081 170.614 131.949 171.485 131.949C172.091 131.949 172.671 132.02 173.225 132.162C173.784 132.304 174.279 132.524 174.71 132.822C175.145 133.121 175.489 133.504 175.74 133.973C175.99 134.437 176.116 134.993 176.116 135.642V143H173.247V141.487H173.161C172.986 141.828 172.752 142.129 172.458 142.389C172.165 142.645 171.812 142.846 171.4 142.993C170.988 143.135 170.512 143.206 169.972 143.206ZM170.839 141.118C171.284 141.118 171.677 141.03 172.018 140.855C172.359 140.675 172.626 140.434 172.82 140.131C173.015 139.828 173.112 139.484 173.112 139.101V137.943C173.017 138.005 172.887 138.062 172.721 138.114C172.56 138.161 172.378 138.206 172.174 138.249C171.971 138.286 171.767 138.322 171.563 138.355C171.36 138.384 171.175 138.41 171.009 138.433C170.654 138.485 170.344 138.568 170.079 138.682C169.814 138.795 169.608 138.949 169.461 139.143C169.314 139.333 169.241 139.57 169.241 139.854C169.241 140.266 169.39 140.58 169.688 140.798C169.991 141.011 170.375 141.118 170.839 141.118ZM184.266 132.091V134.364H177.696V132.091H184.266ZM179.188 129.477H182.213V139.648C182.213 139.927 182.256 140.145 182.341 140.301C182.426 140.453 182.545 140.559 182.696 140.621C182.852 140.682 183.032 140.713 183.236 140.713C183.378 140.713 183.52 140.701 183.662 140.678C183.804 140.649 183.913 140.628 183.989 140.614L184.465 142.865C184.313 142.912 184.1 142.967 183.825 143.028C183.551 143.095 183.217 143.135 182.824 143.149C182.095 143.178 181.456 143.08 180.906 142.858C180.362 142.635 179.938 142.29 179.635 141.821C179.332 141.352 179.183 140.76 179.188 140.045V129.477ZM186.237 143V132.091H189.262V143H186.237ZM187.757 130.685C187.307 130.685 186.921 130.536 186.599 130.237C186.282 129.934 186.123 129.572 186.123 129.151C186.123 128.734 186.282 128.376 186.599 128.078C186.921 127.775 187.307 127.624 187.757 127.624C188.206 127.624 188.59 127.775 188.907 128.078C189.229 128.376 189.39 128.734 189.39 129.151C189.39 129.572 189.229 129.934 188.907 130.237C188.59 130.536 188.206 130.685 187.757 130.685ZM196.615 143.213C195.512 143.213 194.558 142.979 193.753 142.51C192.952 142.036 192.335 141.378 191.899 140.536C191.463 139.688 191.246 138.705 191.246 137.588C191.246 136.461 191.463 135.476 191.899 134.634C192.335 133.786 192.952 133.128 193.753 132.659C194.558 132.186 195.512 131.949 196.615 131.949C197.718 131.949 198.67 132.186 199.47 132.659C200.275 133.128 200.895 133.786 201.331 134.634C201.766 135.476 201.984 136.461 201.984 137.588C201.984 138.705 201.766 139.688 201.331 140.536C200.895 141.378 200.275 142.036 199.47 142.51C198.67 142.979 197.718 143.213 196.615 143.213ZM196.629 140.869C197.131 140.869 197.55 140.727 197.886 140.443C198.222 140.154 198.476 139.761 198.646 139.264C198.821 138.767 198.909 138.201 198.909 137.567C198.909 136.932 198.821 136.366 198.646 135.869C198.476 135.372 198.222 134.979 197.886 134.69C197.55 134.402 197.131 134.257 196.629 134.257C196.122 134.257 195.696 134.402 195.351 134.69C195.01 134.979 194.752 135.372 194.577 135.869C194.406 136.366 194.321 136.932 194.321 137.567C194.321 138.201 194.406 138.767 194.577 139.264C194.752 139.761 195.01 140.154 195.351 140.443C195.696 140.727 196.122 140.869 196.629 140.869ZM206.977 136.693V143H203.952V132.091H206.835V134.016H206.963C207.204 133.381 207.609 132.879 208.177 132.51C208.746 132.136 209.434 131.949 210.244 131.949C211.002 131.949 211.662 132.115 212.226 132.446C212.789 132.777 213.227 133.251 213.54 133.866C213.852 134.477 214.008 135.206 214.008 136.054V143H210.983V136.594C210.988 135.926 210.817 135.405 210.471 135.031C210.126 134.652 209.65 134.463 209.044 134.463C208.637 134.463 208.277 134.551 207.964 134.726C207.657 134.901 207.415 135.157 207.24 135.493C207.069 135.824 206.982 136.224 206.977 136.693Z" fill="#011E22"/>
<path d="M47.8587 165H46.4496C46.3662 164.595 46.2204 164.239 46.0121 163.932C45.8075 163.625 45.5575 163.367 45.2621 163.159C44.9704 162.947 44.6465 162.788 44.2905 162.682C43.9344 162.576 43.5632 162.523 43.1768 162.523C42.4723 162.523 41.834 162.701 41.2621 163.057C40.6939 163.413 40.2412 163.938 39.9041 164.631C39.5708 165.324 39.4041 166.174 39.4041 167.182C39.4041 168.189 39.5708 169.04 39.9041 169.733C40.2412 170.426 40.6939 170.951 41.2621 171.307C41.834 171.663 42.4723 171.841 43.1768 171.841C43.5632 171.841 43.9344 171.788 44.2905 171.682C44.6465 171.576 44.9704 171.419 45.2621 171.21C45.5575 170.998 45.8075 170.739 46.0121 170.432C46.2204 170.121 46.3662 169.765 46.4496 169.364H47.8587C47.7526 169.958 47.5594 170.491 47.2791 170.96C46.9988 171.43 46.6503 171.83 46.2337 172.159C45.817 172.485 45.3492 172.733 44.8303 172.903C44.3151 173.074 43.764 173.159 43.1768 173.159C42.1844 173.159 41.3018 172.917 40.5291 172.432C39.7564 171.947 39.1484 171.258 38.7053 170.364C38.2621 169.47 38.0405 168.409 38.0405 167.182C38.0405 165.955 38.2621 164.894 38.7053 164C39.1484 163.106 39.7564 162.417 40.5291 161.932C41.3018 161.447 42.1844 161.205 43.1768 161.205C43.764 161.205 44.3151 161.29 44.8303 161.46C45.3492 161.631 45.817 161.881 46.2337 162.21C46.6503 162.536 46.9988 162.934 47.2791 163.403C47.5594 163.869 47.7526 164.402 47.8587 165ZM49.9538 173V164.273H51.2493V165.591H51.3402C51.4993 165.159 51.7872 164.809 52.2038 164.54C52.6205 164.271 53.0902 164.136 53.6129 164.136C53.7114 164.136 53.8345 164.138 53.9822 164.142C54.13 164.146 54.2417 164.152 54.3175 164.159V165.523C54.272 165.511 54.1679 165.494 54.005 165.472C53.8459 165.445 53.6773 165.432 53.4993 165.432C53.075 165.432 52.6963 165.521 52.3629 165.699C52.0334 165.873 51.772 166.116 51.5788 166.426C51.3894 166.733 51.2947 167.083 51.2947 167.477V173H49.9538ZM59.3004 173.182C58.4595 173.182 57.7341 172.996 57.1243 172.625C56.5182 172.25 56.0504 171.727 55.7209 171.057C55.3951 170.383 55.2322 169.598 55.2322 168.705C55.2322 167.811 55.3951 167.023 55.7209 166.341C56.0504 165.655 56.5088 165.121 57.0959 164.739C57.6868 164.352 58.3762 164.159 59.1641 164.159C59.6186 164.159 60.0675 164.235 60.5107 164.386C60.9538 164.538 61.3572 164.784 61.7209 165.125C62.0845 165.462 62.3743 165.909 62.5902 166.466C62.8061 167.023 62.9141 167.708 62.9141 168.523V169.091H56.1868V167.932H61.5504C61.5504 167.439 61.4519 167 61.255 166.614C61.0618 166.227 60.7853 165.922 60.4254 165.699C60.0694 165.475 59.6489 165.364 59.1641 165.364C58.63 165.364 58.1679 165.496 57.7777 165.761C57.3913 166.023 57.094 166.364 56.8857 166.784C56.6773 167.205 56.5732 167.655 56.5732 168.136V168.909C56.5732 169.568 56.6868 170.127 56.9141 170.585C57.1451 171.04 57.4652 171.386 57.8743 171.625C58.2834 171.86 58.7588 171.977 59.3004 171.977C59.6527 171.977 59.9709 171.928 60.255 171.83C60.5429 171.727 60.791 171.576 60.9993 171.375C61.2076 171.17 61.3686 170.917 61.4822 170.614L62.7777 170.977C62.6413 171.417 62.4122 171.803 62.0902 172.136C61.7682 172.466 61.3705 172.723 60.897 172.909C60.4235 173.091 59.8913 173.182 59.3004 173.182ZM67.522 173.205C66.969 173.205 66.4671 173.1 66.0163 172.892C65.5656 172.68 65.2076 172.375 64.9425 171.977C64.6773 171.576 64.5447 171.091 64.5447 170.523C64.5447 170.023 64.6432 169.617 64.8402 169.307C65.0372 168.992 65.3004 168.746 65.63 168.568C65.9595 168.39 66.3232 168.258 66.7209 168.17C67.1224 168.08 67.5258 168.008 67.9311 167.955C68.4614 167.886 68.8913 167.835 69.2209 167.801C69.5542 167.763 69.7966 167.701 69.9482 167.614C70.1035 167.527 70.1811 167.375 70.1811 167.159V167.114C70.1811 166.553 70.0277 166.117 69.7209 165.807C69.4179 165.496 68.9576 165.341 68.3402 165.341C67.7 165.341 67.1982 165.481 66.8345 165.761C66.4709 166.042 66.2152 166.341 66.0675 166.659L64.7947 166.205C65.022 165.674 65.325 165.261 65.7038 164.966C66.0864 164.667 66.5031 164.458 66.9538 164.341C67.4084 164.22 67.8554 164.159 68.2947 164.159C68.575 164.159 68.897 164.193 69.2607 164.261C69.6281 164.326 69.9822 164.46 70.3232 164.665C70.6679 164.869 70.9538 165.178 71.1811 165.591C71.4084 166.004 71.522 166.557 71.522 167.25V173H70.1811V171.818H70.1129C70.022 172.008 69.8705 172.21 69.6584 172.426C69.4463 172.642 69.1641 172.826 68.8118 172.977C68.4595 173.129 68.0296 173.205 67.522 173.205ZM67.7266 172C68.2569 172 68.7038 171.896 69.0675 171.688C69.4349 171.479 69.7114 171.21 69.897 170.881C70.0864 170.551 70.1811 170.205 70.1811 169.841V168.614C70.1243 168.682 69.9993 168.744 69.8061 168.801C69.6167 168.854 69.397 168.902 69.147 168.943C68.9008 168.981 68.6603 169.015 68.4254 169.045C68.1944 169.072 68.0069 169.095 67.8629 169.114C67.5144 169.159 67.1887 169.233 66.8857 169.335C66.5864 169.434 66.344 169.583 66.1584 169.784C65.9766 169.981 65.8857 170.25 65.8857 170.591C65.8857 171.057 66.058 171.409 66.4027 171.648C66.7512 171.883 67.1925 172 67.7266 172ZM77.7649 164.273V165.409H73.2422V164.273H77.7649ZM74.5604 162.182H75.9013V170.5C75.9013 170.879 75.9562 171.163 76.0661 171.352C76.1797 171.538 76.3236 171.663 76.4979 171.727C76.6759 171.788 76.8634 171.818 77.0604 171.818C77.2081 171.818 77.3293 171.811 77.424 171.795C77.5187 171.777 77.5945 171.761 77.6513 171.75L77.924 172.955C77.8331 172.989 77.7062 173.023 77.5433 173.057C77.3804 173.095 77.174 173.114 76.924 173.114C76.5452 173.114 76.174 173.032 75.8104 172.869C75.4505 172.706 75.1513 172.458 74.9126 172.125C74.6778 171.792 74.5604 171.371 74.5604 170.864V162.182ZM83.3473 173.182C82.5064 173.182 81.781 172.996 81.1712 172.625C80.5651 172.25 80.0973 171.727 79.7678 171.057C79.442 170.383 79.2791 169.598 79.2791 168.705C79.2791 167.811 79.442 167.023 79.7678 166.341C80.0973 165.655 80.5556 165.121 81.1428 164.739C81.7337 164.352 82.4231 164.159 83.2109 164.159C83.6655 164.159 84.1143 164.235 84.5575 164.386C85.0007 164.538 85.4041 164.784 85.7678 165.125C86.1314 165.462 86.4212 165.909 86.6371 166.466C86.853 167.023 86.9609 167.708 86.9609 168.523V169.091H80.2337V167.932H85.5973C85.5973 167.439 85.4988 167 85.3018 166.614C85.1087 166.227 84.8321 165.922 84.4723 165.699C84.1162 165.475 83.6958 165.364 83.2109 165.364C82.6768 165.364 82.2147 165.496 81.8246 165.761C81.4382 166.023 81.1409 166.364 80.9325 166.784C80.7242 167.205 80.62 167.655 80.62 168.136V168.909C80.62 169.568 80.7337 170.127 80.9609 170.585C81.192 171.04 81.5121 171.386 81.9212 171.625C82.3303 171.86 82.8056 171.977 83.3473 171.977C83.6996 171.977 84.0178 171.928 84.3018 171.83C84.5897 171.727 84.8378 171.576 85.0462 171.375C85.2545 171.17 85.4155 170.917 85.5291 170.614L86.8246 170.977C86.6882 171.417 86.459 171.803 86.1371 172.136C85.8151 172.466 85.4174 172.723 84.9439 172.909C84.4704 173.091 83.9382 173.182 83.3473 173.182ZM99.4553 176.273V171.659H99.3416C99.2431 171.818 99.103 172.019 98.9212 172.261C98.7393 172.5 98.4799 172.714 98.1428 172.903C97.8056 173.089 97.3568 173.182 96.7962 173.182C96.0689 173.182 95.4268 172.998 94.87 172.631C94.3132 172.259 93.8776 171.737 93.5632 171.062C93.2488 170.384 93.0916 169.583 93.0916 168.659C93.0916 167.742 93.2488 166.947 93.5632 166.273C93.8776 165.598 94.3151 165.078 94.8757 164.71C95.4363 164.343 96.084 164.159 96.8189 164.159C97.3871 164.159 97.8359 164.254 98.1655 164.443C98.4988 164.629 98.7526 164.841 98.9268 165.08C99.1049 165.314 99.2431 165.508 99.3416 165.659H99.5007V164.273H100.796V176.273H99.4553ZM96.978 171.977C97.5159 171.977 97.9704 171.837 98.3416 171.557C98.7128 171.273 98.995 170.881 99.1882 170.381C99.3814 169.877 99.478 169.295 99.478 168.636C99.478 167.985 99.3833 167.415 99.1939 166.926C99.0045 166.434 98.7242 166.051 98.353 165.778C97.9818 165.502 97.5234 165.364 96.978 165.364C96.4098 165.364 95.9363 165.509 95.5575 165.801C95.1825 166.089 94.9003 166.481 94.7109 166.977C94.5253 167.47 94.4325 168.023 94.4325 168.636C94.4325 169.258 94.5272 169.822 94.7166 170.33C94.9098 170.833 95.1939 171.235 95.5689 171.534C95.9477 171.83 96.4174 171.977 96.978 171.977ZM108.751 169.432V164.273H110.092V173H108.751V171.523H108.66C108.455 171.966 108.137 172.343 107.705 172.653C107.273 172.96 106.728 173.114 106.069 173.114C105.523 173.114 105.039 172.994 104.614 172.756C104.19 172.513 103.857 172.15 103.614 171.665C103.372 171.176 103.251 170.561 103.251 169.818V164.273H104.592V169.727C104.592 170.364 104.77 170.871 105.126 171.25C105.486 171.629 105.944 171.818 106.501 171.818C106.834 171.818 107.173 171.733 107.518 171.562C107.866 171.392 108.158 171.131 108.393 170.778C108.631 170.426 108.751 169.977 108.751 169.432ZM116.207 173.182C115.366 173.182 114.64 172.996 114.031 172.625C113.424 172.25 112.957 171.727 112.627 171.057C112.301 170.383 112.138 169.598 112.138 168.705C112.138 167.811 112.301 167.023 112.627 166.341C112.957 165.655 113.415 165.121 114.002 164.739C114.593 164.352 115.282 164.159 116.07 164.159C116.525 164.159 116.974 164.235 117.417 164.386C117.86 164.538 118.263 164.784 118.627 165.125C118.991 165.462 119.281 165.909 119.496 166.466C119.712 167.023 119.82 167.708 119.82 168.523V169.091H113.093V167.932H118.457C118.457 167.439 118.358 167 118.161 166.614C117.968 166.227 117.692 165.922 117.332 165.699C116.976 165.475 116.555 165.364 116.07 165.364C115.536 165.364 115.074 165.496 114.684 165.761C114.298 166.023 114 166.364 113.792 166.784C113.584 167.205 113.479 167.655 113.479 168.136V168.909C113.479 169.568 113.593 170.127 113.82 170.585C114.051 171.04 114.371 171.386 114.781 171.625C115.19 171.86 115.665 171.977 116.207 171.977C116.559 171.977 116.877 171.928 117.161 171.83C117.449 171.727 117.697 171.576 117.906 171.375C118.114 171.17 118.275 170.917 118.388 170.614L119.684 170.977C119.548 171.417 119.318 171.803 118.996 172.136C118.674 172.466 118.277 172.723 117.803 172.909C117.33 173.091 116.798 173.182 116.207 173.182ZM128.042 166.227L126.837 166.568C126.762 166.367 126.65 166.172 126.502 165.983C126.358 165.79 126.161 165.631 125.911 165.506C125.661 165.381 125.341 165.318 124.951 165.318C124.417 165.318 123.972 165.441 123.616 165.688C123.263 165.93 123.087 166.239 123.087 166.614C123.087 166.947 123.209 167.21 123.451 167.403C123.693 167.597 124.072 167.758 124.587 167.886L125.883 168.205C126.663 168.394 127.245 168.684 127.627 169.074C128.01 169.46 128.201 169.958 128.201 170.568C128.201 171.068 128.057 171.515 127.769 171.909C127.485 172.303 127.087 172.614 126.576 172.841C126.065 173.068 125.47 173.182 124.792 173.182C123.902 173.182 123.165 172.989 122.582 172.602C121.998 172.216 121.629 171.652 121.474 170.909L122.746 170.591C122.868 171.061 123.097 171.413 123.434 171.648C123.775 171.883 124.22 172 124.769 172C125.394 172 125.89 171.867 126.258 171.602C126.629 171.333 126.815 171.011 126.815 170.636C126.815 170.333 126.709 170.08 126.496 169.875C126.284 169.667 125.959 169.511 125.519 169.409L124.065 169.068C123.265 168.879 122.678 168.585 122.303 168.188C121.932 167.786 121.746 167.284 121.746 166.682C121.746 166.189 121.885 165.754 122.161 165.375C122.442 164.996 122.822 164.699 123.303 164.483C123.788 164.267 124.337 164.159 124.951 164.159C125.815 164.159 126.493 164.348 126.985 164.727C127.481 165.106 127.834 165.606 128.042 166.227ZM134.015 164.273V165.409H129.492V164.273H134.015ZM130.81 162.182H132.151V170.5C132.151 170.879 132.206 171.163 132.316 171.352C132.43 171.538 132.574 171.663 132.748 171.727C132.926 171.788 133.113 171.818 133.31 171.818C133.458 171.818 133.579 171.811 133.674 171.795C133.769 171.777 133.844 171.761 133.901 171.75L134.174 172.955C134.083 172.989 133.956 173.023 133.793 173.057C133.63 173.095 133.424 173.114 133.174 173.114C132.795 173.114 132.424 173.032 132.06 172.869C131.701 172.706 131.401 172.458 131.163 172.125C130.928 171.792 130.81 171.371 130.81 170.864V162.182ZM136.032 173V164.273H137.373V173H136.032ZM136.714 162.818C136.452 162.818 136.227 162.729 136.038 162.551C135.852 162.373 135.759 162.159 135.759 161.909C135.759 161.659 135.852 161.445 136.038 161.267C136.227 161.089 136.452 161 136.714 161C136.975 161 137.199 161.089 137.384 161.267C137.574 161.445 137.668 161.659 137.668 161.909C137.668 162.159 137.574 162.373 137.384 162.551C137.199 162.729 136.975 162.818 136.714 162.818ZM143.374 173.182C142.586 173.182 141.895 172.994 141.3 172.619C140.71 172.244 140.247 171.72 139.914 171.045C139.585 170.371 139.42 169.583 139.42 168.682C139.42 167.773 139.585 166.979 139.914 166.301C140.247 165.623 140.71 165.097 141.3 164.722C141.895 164.347 142.586 164.159 143.374 164.159C144.162 164.159 144.852 164.347 145.442 164.722C146.037 165.097 146.499 165.623 146.829 166.301C147.162 166.979 147.329 167.773 147.329 168.682C147.329 169.583 147.162 170.371 146.829 171.045C146.499 171.72 146.037 172.244 145.442 172.619C144.852 172.994 144.162 173.182 143.374 173.182ZM143.374 171.977C143.973 171.977 144.465 171.824 144.852 171.517C145.238 171.21 145.524 170.807 145.71 170.307C145.895 169.807 145.988 169.265 145.988 168.682C145.988 168.098 145.895 167.555 145.71 167.051C145.524 166.547 145.238 166.14 144.852 165.83C144.465 165.519 143.973 165.364 143.374 165.364C142.776 165.364 142.283 165.519 141.897 165.83C141.511 166.14 141.225 166.547 141.039 167.051C140.853 167.555 140.761 168.098 140.761 168.682C140.761 169.265 140.853 169.807 141.039 170.307C141.225 170.807 141.511 171.21 141.897 171.517C142.283 171.824 142.776 171.977 143.374 171.977ZM150.717 167.75V173H149.376V164.273H150.671V165.636H150.785C150.989 165.193 151.3 164.837 151.717 164.568C152.133 164.295 152.671 164.159 153.33 164.159C153.921 164.159 154.438 164.28 154.881 164.523C155.325 164.761 155.669 165.125 155.915 165.614C156.162 166.098 156.285 166.712 156.285 167.455V173H154.944V167.545C154.944 166.86 154.766 166.326 154.41 165.943C154.054 165.557 153.565 165.364 152.944 165.364C152.516 165.364 152.133 165.456 151.796 165.642C151.463 165.828 151.2 166.098 151.006 166.455C150.813 166.811 150.717 167.242 150.717 167.75ZM164.917 166.227L163.712 166.568C163.637 166.367 163.525 166.172 163.377 165.983C163.233 165.79 163.036 165.631 162.786 165.506C162.536 165.381 162.216 165.318 161.826 165.318C161.292 165.318 160.847 165.441 160.491 165.688C160.138 165.93 159.962 166.239 159.962 166.614C159.962 166.947 160.084 167.21 160.326 167.403C160.568 167.597 160.947 167.758 161.462 167.886L162.758 168.205C163.538 168.394 164.12 168.684 164.502 169.074C164.885 169.46 165.076 169.958 165.076 170.568C165.076 171.068 164.932 171.515 164.644 171.909C164.36 172.303 163.962 172.614 163.451 172.841C162.94 173.068 162.345 173.182 161.667 173.182C160.777 173.182 160.04 172.989 159.457 172.602C158.873 172.216 158.504 171.652 158.349 170.909L159.621 170.591C159.743 171.061 159.972 171.413 160.309 171.648C160.65 171.883 161.095 172 161.644 172C162.269 172 162.765 171.867 163.133 171.602C163.504 171.333 163.69 171.011 163.69 170.636C163.69 170.333 163.584 170.08 163.371 169.875C163.159 169.667 162.834 169.511 162.394 169.409L160.94 169.068C160.14 168.879 159.553 168.585 159.178 168.188C158.807 167.786 158.621 167.284 158.621 166.682C158.621 166.189 158.76 165.754 159.036 165.375C159.317 164.996 159.697 164.699 160.178 164.483C160.663 164.267 161.212 164.159 161.826 164.159C162.69 164.159 163.368 164.348 163.86 164.727C164.356 165.106 164.709 165.606 164.917 166.227ZM173.572 173L170.913 164.273H172.322L174.208 170.955H174.299L176.163 164.273H177.594L179.435 170.932H179.526L181.413 164.273H182.822L180.163 173H178.844L176.935 166.295H176.799L174.89 173H173.572ZM185.935 167.75V173H184.594V161.364H185.935V165.636H186.049C186.254 165.186 186.56 164.828 186.969 164.562C187.382 164.294 187.932 164.159 188.617 164.159C189.212 164.159 189.733 164.278 190.18 164.517C190.627 164.752 190.973 165.114 191.219 165.602C191.469 166.087 191.594 166.705 191.594 167.455V173H190.254V167.545C190.254 166.852 190.074 166.316 189.714 165.938C189.358 165.555 188.863 165.364 188.231 165.364C187.791 165.364 187.397 165.456 187.049 165.642C186.704 165.828 186.432 166.098 186.231 166.455C186.034 166.811 185.935 167.242 185.935 167.75ZM197.707 173.182C196.866 173.182 196.14 172.996 195.531 172.625C194.924 172.25 194.457 171.727 194.127 171.057C193.801 170.383 193.638 169.598 193.638 168.705C193.638 167.811 193.801 167.023 194.127 166.341C194.457 165.655 194.915 165.121 195.502 164.739C196.093 164.352 196.782 164.159 197.57 164.159C198.025 164.159 198.474 164.235 198.917 164.386C199.36 164.538 199.763 164.784 200.127 165.125C200.491 165.462 200.781 165.909 200.996 166.466C201.212 167.023 201.32 167.708 201.32 168.523V169.091H194.593V167.932H199.957C199.957 167.439 199.858 167 199.661 166.614C199.468 166.227 199.192 165.922 198.832 165.699C198.476 165.475 198.055 165.364 197.57 165.364C197.036 165.364 196.574 165.496 196.184 165.761C195.798 166.023 195.5 166.364 195.292 166.784C195.084 167.205 194.979 167.655 194.979 168.136V168.909C194.979 169.568 195.093 170.127 195.32 170.585C195.551 171.04 195.871 171.386 196.281 171.625C196.69 171.86 197.165 171.977 197.707 171.977C198.059 171.977 198.377 171.928 198.661 171.83C198.949 171.727 199.197 171.576 199.406 171.375C199.614 171.17 199.775 170.917 199.888 170.614L201.184 170.977C201.048 171.417 200.818 171.803 200.496 172.136C200.174 172.466 199.777 172.723 199.303 172.909C198.83 173.091 198.298 173.182 197.707 173.182ZM203.36 173V164.273H204.656V165.591H204.746C204.906 165.159 205.193 164.809 205.61 164.54C206.027 164.271 206.496 164.136 207.019 164.136C207.118 164.136 207.241 164.138 207.388 164.142C207.536 164.146 207.648 164.152 207.724 164.159V165.523C207.678 165.511 207.574 165.494 207.411 165.472C207.252 165.445 207.084 165.432 206.906 165.432C206.481 165.432 206.103 165.521 205.769 165.699C205.44 165.873 205.178 166.116 204.985 166.426C204.796 166.733 204.701 167.083 204.701 167.477V173H203.36ZM212.707 173.182C211.866 173.182 211.14 172.996 210.531 172.625C209.924 172.25 209.457 171.727 209.127 171.057C208.801 170.383 208.638 169.598 208.638 168.705C208.638 167.811 208.801 167.023 209.127 166.341C209.457 165.655 209.915 165.121 210.502 164.739C211.093 164.352 211.782 164.159 212.57 164.159C213.025 164.159 213.474 164.235 213.917 164.386C214.36 164.538 214.763 164.784 215.127 165.125C215.491 165.462 215.781 165.909 215.996 166.466C216.212 167.023 216.32 167.708 216.32 168.523V169.091H209.593V167.932H214.957C214.957 167.439 214.858 167 214.661 166.614C214.468 166.227 214.192 165.922 213.832 165.699C213.476 165.475 213.055 165.364 212.57 165.364C212.036 165.364 211.574 165.496 211.184 165.761C210.798 166.023 210.5 166.364 210.292 166.784C210.084 167.205 209.979 167.655 209.979 168.136V168.909C209.979 169.568 210.093 170.127 210.32 170.585C210.551 171.04 210.871 171.386 211.281 171.625C211.69 171.86 212.165 171.977 212.707 171.977C213.059 171.977 213.377 171.928 213.661 171.83C213.949 171.727 214.197 171.576 214.406 171.375C214.614 171.17 214.775 170.917 214.888 170.614L216.184 170.977C216.048 171.417 215.818 171.803 215.496 172.136C215.174 172.466 214.777 172.723 214.303 172.909C213.83 173.091 213.298 173.182 212.707 173.182ZM228.36 169.432V164.273H229.701V173H228.36V171.523H228.269C228.065 171.966 227.746 172.343 227.315 172.653C226.883 172.96 226.337 173.114 225.678 173.114C225.133 173.114 224.648 172.994 224.224 172.756C223.799 172.513 223.466 172.15 223.224 171.665C222.981 171.176 222.86 170.561 222.86 169.818V164.273H224.201V169.727C224.201 170.364 224.379 170.871 224.735 171.25C225.095 171.629 225.553 171.818 226.11 171.818C226.443 171.818 226.782 171.733 227.127 171.562C227.476 171.392 227.767 171.131 228.002 170.778C228.241 170.426 228.36 169.977 228.36 169.432ZM238.339 166.227L237.134 166.568C237.058 166.367 236.947 166.172 236.799 165.983C236.655 165.79 236.458 165.631 236.208 165.506C235.958 165.381 235.638 165.318 235.248 165.318C234.714 165.318 234.269 165.441 233.913 165.688C233.56 165.93 233.384 166.239 233.384 166.614C233.384 166.947 233.505 167.21 233.748 167.403C233.99 167.597 234.369 167.758 234.884 167.886L236.18 168.205C236.96 168.394 237.541 168.684 237.924 169.074C238.307 169.46 238.498 169.958 238.498 170.568C238.498 171.068 238.354 171.515 238.066 171.909C237.782 172.303 237.384 172.614 236.873 172.841C236.362 173.068 235.767 173.182 235.089 173.182C234.199 173.182 233.462 172.989 232.879 172.602C232.295 172.216 231.926 171.652 231.771 170.909L233.043 170.591C233.165 171.061 233.394 171.413 233.731 171.648C234.072 171.883 234.517 172 235.066 172C235.691 172 236.187 171.867 236.555 171.602C236.926 171.333 237.112 171.011 237.112 170.636C237.112 170.333 237.005 170.08 236.793 169.875C236.581 169.667 236.255 169.511 235.816 169.409L234.362 169.068C233.562 168.879 232.975 168.585 232.6 168.188C232.229 167.786 232.043 167.284 232.043 166.682C232.043 166.189 232.182 165.754 232.458 165.375C232.738 164.996 233.119 164.699 233.6 164.483C234.085 164.267 234.634 164.159 235.248 164.159C236.112 164.159 236.79 164.348 237.282 164.727C237.778 165.106 238.13 165.606 238.339 166.227ZM244.175 173.182C243.335 173.182 242.609 172.996 241.999 172.625C241.393 172.25 240.925 171.727 240.596 171.057C240.27 170.383 240.107 169.598 240.107 168.705C240.107 167.811 240.27 167.023 240.596 166.341C240.925 165.655 241.384 165.121 241.971 164.739C242.562 164.352 243.251 164.159 244.039 164.159C244.494 164.159 244.942 164.235 245.386 164.386C245.829 164.538 246.232 164.784 246.596 165.125C246.96 165.462 247.249 165.909 247.465 166.466C247.681 167.023 247.789 167.708 247.789 168.523V169.091H241.062V167.932H246.425C246.425 167.439 246.327 167 246.13 166.614C245.937 166.227 245.66 165.922 245.3 165.699C244.944 165.475 244.524 165.364 244.039 165.364C243.505 165.364 243.043 165.496 242.653 165.761C242.266 166.023 241.969 166.364 241.761 166.784C241.552 167.205 241.448 167.655 241.448 168.136V168.909C241.448 169.568 241.562 170.127 241.789 170.585C242.02 171.04 242.34 171.386 242.749 171.625C243.158 171.86 243.634 171.977 244.175 171.977C244.528 171.977 244.846 171.928 245.13 171.83C245.418 171.727 245.666 171.576 245.874 171.375C246.083 171.17 246.244 170.917 246.357 170.614L247.653 170.977C247.516 171.417 247.287 171.803 246.965 172.136C246.643 172.466 246.246 172.723 245.772 172.909C245.299 173.091 244.766 173.182 244.175 173.182ZM249.829 173V164.273H251.124V165.591H251.215C251.374 165.159 251.662 164.809 252.079 164.54C252.496 164.271 252.965 164.136 253.488 164.136C253.586 164.136 253.71 164.138 253.857 164.142C254.005 164.146 254.117 164.152 254.192 164.159V165.523C254.147 165.511 254.043 165.494 253.88 165.472C253.721 165.445 253.552 165.432 253.374 165.432C252.95 165.432 252.571 165.521 252.238 165.699C251.908 165.873 251.647 166.116 251.454 166.426C251.264 166.733 251.17 167.083 251.17 167.477V173H249.829ZM261.964 166.227L260.759 166.568C260.683 166.367 260.572 166.172 260.424 165.983C260.28 165.79 260.083 165.631 259.833 165.506C259.583 165.381 259.263 165.318 258.873 165.318C258.339 165.318 257.894 165.441 257.538 165.688C257.185 165.93 257.009 166.239 257.009 166.614C257.009 166.947 257.13 167.21 257.373 167.403C257.615 167.597 257.994 167.758 258.509 167.886L259.805 168.205C260.585 168.394 261.166 168.684 261.549 169.074C261.932 169.46 262.123 169.958 262.123 170.568C262.123 171.068 261.979 171.515 261.691 171.909C261.407 172.303 261.009 172.614 260.498 172.841C259.987 173.068 259.392 173.182 258.714 173.182C257.824 173.182 257.087 172.989 256.504 172.602C255.92 172.216 255.551 171.652 255.396 170.909L256.668 170.591C256.79 171.061 257.019 171.413 257.356 171.648C257.697 171.883 258.142 172 258.691 172C259.316 172 259.812 171.867 260.18 171.602C260.551 171.333 260.737 171.011 260.737 170.636C260.737 170.333 260.63 170.08 260.418 169.875C260.206 169.667 259.88 169.511 259.441 169.409L257.987 169.068C257.187 168.879 256.6 168.585 256.225 168.188C255.854 167.786 255.668 167.284 255.668 166.682C255.668 166.189 255.807 165.754 256.083 165.375C256.363 164.996 256.744 164.699 257.225 164.483C257.71 164.267 258.259 164.159 258.873 164.159C259.737 164.159 260.415 164.348 260.907 164.727C261.403 165.106 261.755 165.606 261.964 166.227ZM55.7571 183.273V184.409H51.2344V183.273H55.7571ZM52.5526 181.182H53.8935V189.5C53.8935 189.879 53.9484 190.163 54.0582 190.352C54.1719 190.538 54.3158 190.663 54.4901 190.727C54.6681 190.788 54.8556 190.818 55.0526 190.818C55.2003 190.818 55.3215 190.811 55.4162 190.795C55.5109 190.777 55.5866 190.761 55.6435 190.75L55.9162 191.955C55.8253 191.989 55.6984 192.023 55.5355 192.057C55.3726 192.095 55.1662 192.114 54.9162 192.114C54.5374 192.114 54.1662 192.032 53.8026 191.869C53.4427 191.706 53.1435 191.458 52.9048 191.125C52.67 190.792 52.5526 190.371 52.5526 189.864V181.182ZM58.6378 195.273C58.4105 195.273 58.2079 195.254 58.0298 195.216C57.8518 195.182 57.7287 195.148 57.6605 195.114L58.0014 193.932C58.3272 194.015 58.6151 194.045 58.8651 194.023C59.1151 194 59.3366 193.888 59.5298 193.688C59.7268 193.491 59.9067 193.17 60.0696 192.727L60.3196 192.045L57.0923 183.273H58.5469L60.956 190.227H61.0469L63.456 183.273H64.9105L61.206 193.273C61.0393 193.723 60.8329 194.097 60.5866 194.392C60.3404 194.691 60.0545 194.913 59.7287 195.057C59.4067 195.201 59.0431 195.273 58.6378 195.273ZM66.6804 195.273V183.273H67.9759V184.659H68.1349C68.2334 184.508 68.3698 184.314 68.544 184.08C68.7221 183.841 68.9759 183.629 69.3054 183.443C69.6387 183.254 70.0895 183.159 70.6577 183.159C71.3925 183.159 72.0402 183.343 72.6009 183.71C73.1615 184.078 73.599 184.598 73.9134 185.273C74.2277 185.947 74.3849 186.742 74.3849 187.659C74.3849 188.583 74.2277 189.384 73.9134 190.062C73.599 190.737 73.1634 191.259 72.6065 191.631C72.0497 191.998 71.4077 192.182 70.6804 192.182C70.1198 192.182 69.6709 192.089 69.3338 191.903C68.9967 191.714 68.7372 191.5 68.5554 191.261C68.3736 191.019 68.2334 190.818 68.1349 190.659H68.0213V195.273H66.6804ZM67.9986 187.636C67.9986 188.295 68.0952 188.877 68.2884 189.381C68.4815 189.881 68.7637 190.273 69.1349 190.557C69.5062 190.837 69.9607 190.977 70.4986 190.977C71.0592 190.977 71.527 190.83 71.902 190.534C72.2808 190.235 72.5649 189.833 72.7543 189.33C72.9474 188.822 73.044 188.258 73.044 187.636C73.044 187.023 72.9493 186.47 72.7599 185.977C72.5743 185.481 72.2921 185.089 71.9134 184.801C71.5384 184.509 71.0668 184.364 70.4986 184.364C69.9531 184.364 69.4948 184.502 69.1236 184.778C68.7524 185.051 68.4721 185.434 68.2827 185.926C68.0933 186.415 67.9986 186.985 67.9986 187.636ZM80.0895 192.182C79.2486 192.182 78.5232 191.996 77.9134 191.625C77.3073 191.25 76.8395 190.727 76.5099 190.057C76.1842 189.383 76.0213 188.598 76.0213 187.705C76.0213 186.811 76.1842 186.023 76.5099 185.341C76.8395 184.655 77.2978 184.121 77.8849 183.739C78.4759 183.352 79.1652 183.159 79.9531 183.159C80.4077 183.159 80.8565 183.235 81.2997 183.386C81.7429 183.538 82.1463 183.784 82.5099 184.125C82.8736 184.462 83.1634 184.909 83.3793 185.466C83.5952 186.023 83.7031 186.708 83.7031 187.523V188.091H76.9759V186.932H82.3395C82.3395 186.439 82.241 186 82.044 185.614C81.8509 185.227 81.5743 184.922 81.2145 184.699C80.8584 184.475 80.438 184.364 79.9531 184.364C79.419 184.364 78.9569 184.496 78.5668 184.761C78.1804 185.023 77.883 185.364 77.6747 185.784C77.4664 186.205 77.3622 186.655 77.3622 187.136V187.909C77.3622 188.568 77.4759 189.127 77.7031 189.585C77.9342 190.04 78.2543 190.386 78.6634 190.625C79.0724 190.86 79.5478 190.977 80.0895 190.977C80.4418 190.977 80.7599 190.928 81.044 190.83C81.3319 190.727 81.58 190.576 81.7884 190.375C81.9967 190.17 82.1577 189.917 82.2713 189.614L83.5668 189.977C83.4304 190.417 83.2012 190.803 82.8793 191.136C82.5573 191.466 82.1596 191.723 81.6861 191.909C81.2126 192.091 80.6804 192.182 80.0895 192.182ZM90.2429 192V183.273H91.5838V192H90.2429ZM90.9247 181.818C90.6634 181.818 90.438 181.729 90.2486 181.551C90.063 181.373 89.9702 181.159 89.9702 180.909C89.9702 180.659 90.063 180.445 90.2486 180.267C90.438 180.089 90.6634 180 90.9247 180C91.1861 180 91.4096 180.089 91.5952 180.267C91.7846 180.445 91.8793 180.659 91.8793 180.909C91.8793 181.159 91.7846 181.373 91.5952 181.551C91.4096 181.729 91.1861 181.818 90.9247 181.818ZM95.3807 186.75V192H94.0398V183.273H95.3352V184.636H95.4489C95.6534 184.193 95.964 183.837 96.3807 183.568C96.7973 183.295 97.3352 183.159 97.9943 183.159C98.5852 183.159 99.1023 183.28 99.5455 183.523C99.9886 183.761 100.333 184.125 100.58 184.614C100.826 185.098 100.949 185.712 100.949 186.455V192H99.608V186.545C99.608 185.86 99.4299 185.326 99.0739 184.943C98.7178 184.557 98.2292 184.364 97.608 184.364C97.1799 184.364 96.7973 184.456 96.4602 184.642C96.1269 184.828 95.8636 185.098 95.6705 185.455C95.4773 185.811 95.3807 186.242 95.3807 186.75ZM111.695 183.273V184.409H107.172V183.273H111.695ZM108.49 181.182H109.831V189.5C109.831 189.879 109.886 190.163 109.996 190.352C110.109 190.538 110.253 190.663 110.428 190.727C110.606 190.788 110.793 190.818 110.99 190.818C111.138 190.818 111.259 190.811 111.354 190.795C111.448 190.777 111.524 190.761 111.581 190.75L111.854 191.955C111.763 191.989 111.636 192.023 111.473 192.057C111.31 192.095 111.104 192.114 110.854 192.114C110.475 192.114 110.104 192.032 109.74 191.869C109.38 191.706 109.081 191.458 108.842 191.125C108.607 190.792 108.49 190.371 108.49 189.864V181.182ZM115.24 186.75V192H113.899V180.364H115.24V184.636H115.354C115.558 184.186 115.865 183.828 116.274 183.562C116.687 183.294 117.236 183.159 117.922 183.159C118.517 183.159 119.037 183.278 119.484 183.517C119.931 183.752 120.278 184.114 120.524 184.602C120.774 185.087 120.899 185.705 120.899 186.455V192H119.558V186.545C119.558 185.852 119.378 185.316 119.018 184.938C118.662 184.555 118.168 184.364 117.536 184.364C117.096 184.364 116.702 184.456 116.354 184.642C116.009 184.828 115.736 185.098 115.536 185.455C115.339 185.811 115.24 186.242 115.24 186.75ZM127.011 192.182C126.17 192.182 125.445 191.996 124.835 191.625C124.229 191.25 123.761 190.727 123.432 190.057C123.106 189.383 122.943 188.598 122.943 187.705C122.943 186.811 123.106 186.023 123.432 185.341C123.761 184.655 124.22 184.121 124.807 183.739C125.398 183.352 126.087 183.159 126.875 183.159C127.33 183.159 127.778 183.235 128.222 183.386C128.665 183.538 129.068 183.784 129.432 184.125C129.795 184.462 130.085 184.909 130.301 185.466C130.517 186.023 130.625 186.708 130.625 187.523V188.091H123.898V186.932H129.261C129.261 186.439 129.163 186 128.966 185.614C128.773 185.227 128.496 184.922 128.136 184.699C127.78 184.475 127.36 184.364 126.875 184.364C126.341 184.364 125.879 184.496 125.489 184.761C125.102 185.023 124.805 185.364 124.597 185.784C124.388 186.205 124.284 186.655 124.284 187.136V187.909C124.284 188.568 124.398 189.127 124.625 189.585C124.856 190.04 125.176 190.386 125.585 190.625C125.994 190.86 126.47 190.977 127.011 190.977C127.364 190.977 127.682 190.928 127.966 190.83C128.254 190.727 128.502 190.576 128.71 190.375C128.919 190.17 129.08 189.917 129.193 189.614L130.489 189.977C130.352 190.417 130.123 190.803 129.801 191.136C129.479 191.466 129.081 191.723 128.608 191.909C128.134 192.091 127.602 192.182 127.011 192.182ZM132.665 192V183.273H134.006V192H132.665ZM133.347 181.818C133.085 181.818 132.86 181.729 132.67 181.551C132.485 181.373 132.392 181.159 132.392 180.909C132.392 180.659 132.485 180.445 132.67 180.267C132.86 180.089 133.085 180 133.347 180C133.608 180 133.831 180.089 134.017 180.267C134.206 180.445 134.301 180.659 134.301 180.909C134.301 181.159 134.206 181.373 134.017 181.551C133.831 181.729 133.608 181.818 133.347 181.818ZM136.462 192V183.273H137.757V184.591H137.848C138.007 184.159 138.295 183.809 138.712 183.54C139.128 183.271 139.598 183.136 140.121 183.136C140.219 183.136 140.342 183.138 140.49 183.142C140.638 183.146 140.75 183.152 140.825 183.159V184.523C140.78 184.511 140.676 184.494 140.513 184.472C140.354 184.445 140.185 184.432 140.007 184.432C139.583 184.432 139.204 184.521 138.871 184.699C138.541 184.873 138.28 185.116 138.087 185.426C137.897 185.733 137.803 186.083 137.803 186.477V192H136.462ZM150.46 192.182C149.672 192.182 148.981 191.994 148.386 191.619C147.795 191.244 147.333 190.72 147 190.045C146.67 189.371 146.506 188.583 146.506 187.682C146.506 186.773 146.67 185.979 147 185.301C147.333 184.623 147.795 184.097 148.386 183.722C148.981 183.347 149.672 183.159 150.46 183.159C151.248 183.159 151.938 183.347 152.528 183.722C153.123 184.097 153.585 184.623 153.915 185.301C154.248 185.979 154.415 186.773 154.415 187.682C154.415 188.583 154.248 189.371 153.915 190.045C153.585 190.72 153.123 191.244 152.528 191.619C151.938 191.994 151.248 192.182 150.46 192.182ZM150.46 190.977C151.059 190.977 151.551 190.824 151.938 190.517C152.324 190.21 152.61 189.807 152.795 189.307C152.981 188.807 153.074 188.265 153.074 187.682C153.074 187.098 152.981 186.555 152.795 186.051C152.61 185.547 152.324 185.14 151.938 184.83C151.551 184.519 151.059 184.364 150.46 184.364C149.862 184.364 149.369 184.519 148.983 184.83C148.597 185.14 148.311 185.547 148.125 186.051C147.939 186.555 147.847 187.098 147.847 187.682C147.847 188.265 147.939 188.807 148.125 189.307C148.311 189.807 148.597 190.21 148.983 190.517C149.369 190.824 149.862 190.977 150.46 190.977ZM158.142 192L155.483 183.273H156.892L158.778 189.955H158.869L160.733 183.273H162.165L164.006 189.932H164.097L165.983 183.273H167.392L164.733 192H163.415L161.506 185.295H161.369L159.46 192H158.142ZM170.506 186.75V192H169.165V183.273H170.46V184.636H170.574C170.778 184.193 171.089 183.837 171.506 183.568C171.922 183.295 172.46 183.159 173.119 183.159C173.71 183.159 174.227 183.28 174.67 183.523C175.114 183.761 175.458 184.125 175.705 184.614C175.951 185.098 176.074 185.712 176.074 186.455V192H174.733V186.545C174.733 185.86 174.555 185.326 174.199 184.943C173.843 184.557 173.354 184.364 172.733 184.364C172.305 184.364 171.922 184.456 171.585 184.642C171.252 184.828 170.989 185.098 170.795 185.455C170.602 185.811 170.506 186.242 170.506 186.75ZM185.592 192.205C185.039 192.205 184.537 192.1 184.087 191.892C183.636 191.68 183.278 191.375 183.013 190.977C182.748 190.576 182.615 190.091 182.615 189.523C182.615 189.023 182.714 188.617 182.911 188.307C183.107 187.992 183.371 187.746 183.7 187.568C184.03 187.39 184.393 187.258 184.791 187.17C185.193 187.08 185.596 187.008 186.001 186.955C186.532 186.886 186.962 186.835 187.291 186.801C187.625 186.763 187.867 186.701 188.018 186.614C188.174 186.527 188.251 186.375 188.251 186.159V186.114C188.251 185.553 188.098 185.117 187.791 184.807C187.488 184.496 187.028 184.341 186.411 184.341C185.77 184.341 185.268 184.481 184.905 184.761C184.541 185.042 184.286 185.341 184.138 185.659L182.865 185.205C183.092 184.674 183.395 184.261 183.774 183.966C184.157 183.667 184.573 183.458 185.024 183.341C185.479 183.22 185.926 183.159 186.365 183.159C186.645 183.159 186.967 183.193 187.331 183.261C187.698 183.326 188.053 183.46 188.393 183.665C188.738 183.869 189.024 184.178 189.251 184.591C189.479 185.004 189.592 185.557 189.592 186.25V192H188.251V190.818H188.183C188.092 191.008 187.941 191.21 187.729 191.426C187.517 191.642 187.234 191.826 186.882 191.977C186.53 192.129 186.1 192.205 185.592 192.205ZM185.797 191C186.327 191 186.774 190.896 187.138 190.688C187.505 190.479 187.782 190.21 187.967 189.881C188.157 189.551 188.251 189.205 188.251 188.841V187.614C188.195 187.682 188.07 187.744 187.876 187.801C187.687 187.854 187.467 187.902 187.217 187.943C186.971 187.981 186.731 188.015 186.496 188.045C186.265 188.072 186.077 188.095 185.933 188.114C185.585 188.159 185.259 188.233 184.956 188.335C184.657 188.434 184.414 188.583 184.229 188.784C184.047 188.981 183.956 189.25 183.956 189.591C183.956 190.057 184.128 190.409 184.473 190.648C184.821 190.883 185.263 191 185.797 191ZM193.381 186.75V192H192.04V183.273H193.335V184.636H193.449C193.653 184.193 193.964 183.837 194.381 183.568C194.797 183.295 195.335 183.159 195.994 183.159C196.585 183.159 197.102 183.28 197.545 183.523C197.989 183.761 198.333 184.125 198.58 184.614C198.826 185.098 198.949 185.712 198.949 186.455V192H197.608V186.545C197.608 185.86 197.43 185.326 197.074 184.943C196.718 184.557 196.229 184.364 195.608 184.364C195.18 184.364 194.797 184.456 194.46 184.642C194.127 184.828 193.864 185.098 193.67 185.455C193.477 185.811 193.381 186.242 193.381 186.75ZM207.581 185.227L206.376 185.568C206.301 185.367 206.189 185.172 206.041 184.983C205.897 184.79 205.7 184.631 205.45 184.506C205.2 184.381 204.88 184.318 204.49 184.318C203.956 184.318 203.511 184.441 203.155 184.688C202.803 184.93 202.626 185.239 202.626 185.614C202.626 185.947 202.748 186.21 202.99 186.403C203.232 186.597 203.611 186.758 204.126 186.886L205.422 187.205C206.202 187.394 206.784 187.684 207.166 188.074C207.549 188.46 207.74 188.958 207.74 189.568C207.74 190.068 207.596 190.515 207.308 190.909C207.024 191.303 206.626 191.614 206.115 191.841C205.604 192.068 205.009 192.182 204.331 192.182C203.441 192.182 202.704 191.989 202.121 191.602C201.537 191.216 201.168 190.652 201.013 189.909L202.286 189.591C202.407 190.061 202.636 190.413 202.973 190.648C203.314 190.883 203.759 191 204.308 191C204.933 191 205.429 190.867 205.797 190.602C206.168 190.333 206.354 190.011 206.354 189.636C206.354 189.333 206.248 189.08 206.036 188.875C205.823 188.667 205.498 188.511 205.058 188.409L203.604 188.068C202.804 187.879 202.217 187.585 201.842 187.188C201.471 186.786 201.286 186.284 201.286 185.682C201.286 185.189 201.424 184.754 201.7 184.375C201.981 183.996 202.361 183.699 202.842 183.483C203.327 183.267 203.876 183.159 204.49 183.159C205.354 183.159 206.032 183.348 206.524 183.727C207.02 184.106 207.373 184.606 207.581 185.227ZM211.736 192L209.077 183.273H210.486L212.372 189.955H212.463L214.327 183.273H215.759L217.599 189.932H217.69L219.577 183.273H220.986L218.327 192H217.009L215.099 185.295H214.963L213.054 192H211.736ZM226.121 192.182C225.28 192.182 224.554 191.996 223.945 191.625C223.339 191.25 222.871 190.727 222.541 190.057C222.215 189.383 222.053 188.598 222.053 187.705C222.053 186.811 222.215 186.023 222.541 185.341C222.871 184.655 223.329 184.121 223.916 183.739C224.507 183.352 225.196 183.159 225.984 183.159C226.439 183.159 226.888 183.235 227.331 183.386C227.774 183.538 228.178 183.784 228.541 184.125C228.905 184.462 229.195 184.909 229.411 185.466C229.626 186.023 229.734 186.708 229.734 187.523V188.091H223.007V186.932H228.371C228.371 186.439 228.272 186 228.075 185.614C227.882 185.227 227.606 184.922 227.246 184.699C226.89 184.475 226.469 184.364 225.984 184.364C225.45 184.364 224.988 184.496 224.598 184.761C224.212 185.023 223.914 185.364 223.706 185.784C223.498 186.205 223.393 186.655 223.393 187.136V187.909C223.393 188.568 223.507 189.127 223.734 189.585C223.965 190.04 224.286 190.386 224.695 190.625C225.104 190.86 225.579 190.977 226.121 190.977C226.473 190.977 226.791 190.928 227.075 190.83C227.363 190.727 227.611 190.576 227.82 190.375C228.028 190.17 228.189 189.917 228.303 189.614L229.598 189.977C229.462 190.417 229.232 190.803 228.911 191.136C228.589 191.466 228.191 191.723 227.717 191.909C227.244 192.091 226.712 192.182 226.121 192.182ZM231.774 192V183.273H233.07V184.591H233.161C233.32 184.159 233.607 183.809 234.024 183.54C234.441 183.271 234.911 183.136 235.433 183.136C235.532 183.136 235.655 183.138 235.803 183.142C235.95 183.146 236.062 183.152 236.138 183.159V184.523C236.092 184.511 235.988 184.494 235.825 184.472C235.666 184.445 235.498 184.432 235.32 184.432C234.895 184.432 234.517 184.521 234.183 184.699C233.854 184.873 233.592 185.116 233.399 185.426C233.21 185.733 233.115 186.083 233.115 186.477V192H231.774ZM243.909 185.227L242.705 185.568C242.629 185.367 242.517 185.172 242.369 184.983C242.225 184.79 242.028 184.631 241.778 184.506C241.528 184.381 241.208 184.318 240.818 184.318C240.284 184.318 239.839 184.441 239.483 184.688C239.131 184.93 238.955 185.239 238.955 185.614C238.955 185.947 239.076 186.21 239.318 186.403C239.561 186.597 239.939 186.758 240.455 186.886L241.75 187.205C242.53 187.394 243.112 187.684 243.494 188.074C243.877 188.46 244.068 188.958 244.068 189.568C244.068 190.068 243.924 190.515 243.636 190.909C243.352 191.303 242.955 191.614 242.443 191.841C241.932 192.068 241.337 192.182 240.659 192.182C239.769 192.182 239.032 191.989 238.449 191.602C237.866 191.216 237.496 190.652 237.341 189.909L238.614 189.591C238.735 190.061 238.964 190.413 239.301 190.648C239.642 190.883 240.087 191 240.636 191C241.261 191 241.758 190.867 242.125 190.602C242.496 190.333 242.682 190.011 242.682 189.636C242.682 189.333 242.576 189.08 242.364 188.875C242.152 188.667 241.826 188.511 241.386 188.409L239.932 188.068C239.133 187.879 238.545 187.585 238.17 187.188C237.799 186.786 237.614 186.284 237.614 185.682C237.614 185.189 237.752 184.754 238.028 184.375C238.309 183.996 238.689 183.699 239.17 183.483C239.655 183.267 240.205 183.159 240.818 183.159C241.682 183.159 242.36 183.348 242.852 183.727C243.348 184.106 243.701 184.606 243.909 185.227ZM247.064 192.091C246.784 192.091 246.543 191.991 246.342 191.79C246.142 191.589 246.041 191.348 246.041 191.068C246.041 190.788 246.142 190.547 246.342 190.347C246.543 190.146 246.784 190.045 247.064 190.045C247.344 190.045 247.585 190.146 247.786 190.347C247.986 190.547 248.087 190.788 248.087 191.068C248.087 191.254 248.039 191.424 247.945 191.58C247.854 191.735 247.731 191.86 247.575 191.955C247.424 192.045 247.253 192.091 247.064 192.091Z" fill="black"/>
</svg>
