<svg width="300" height="240" viewBox="0 0 300 240" fill="none" xmlns="http://www.w3.org/2000/svg">
<rect x="0.5" y="0.5" width="299" height="239" rx="19.5" fill="#043036"/>
<rect x="0.5" y="0.5" width="299" height="239" rx="19.5" stroke="#00FFF7"/>
<rect x="45.5" y="44.5" width="44" height="44" rx="22" fill="#011E22" fill-opacity="0.5"/>
<rect x="45.5" y="44.5" width="44" height="44" rx="22" stroke="#00FFF7"/>
<path d="M62.3295 74.5H60.1136L66.5227 57.0455H68.7045L75.1136 74.5H72.8977L67.6818 59.8068H67.5455L62.3295 74.5ZM63.1477 67.6818H72.0795V69.5568H63.1477V67.6818Z" fill="#00FFF7"/>
<rect x="100.5" y="44.5" width="44" height="44" rx="22" fill="#011E22" fill-opacity="0.5"/>
<rect x="100.5" y="44.5" width="44" height="44" rx="22" stroke="#00FFF7"/>
<path d="M117.114 74.5V57.0455H123.216C124.432 57.0455 125.435 57.2557 126.224 57.6761C127.014 58.0909 127.602 58.6506 127.989 59.3551C128.375 60.054 128.568 60.8295 128.568 61.6818C128.568 62.4318 128.435 63.0511 128.168 63.5398C127.906 64.0284 127.56 64.4148 127.128 64.6989C126.702 64.983 126.239 65.1932 125.739 65.3295V65.5C126.273 65.5341 126.81 65.7216 127.349 66.0625C127.889 66.4034 128.341 66.892 128.705 67.5284C129.068 68.1648 129.25 68.9432 129.25 69.8636C129.25 70.7386 129.051 71.5256 128.653 72.2244C128.256 72.9233 127.628 73.4773 126.77 73.8864C125.912 74.2955 124.795 74.5 123.42 74.5H117.114ZM119.227 72.625H123.42C124.801 72.625 125.781 72.358 126.361 71.8239C126.946 71.2841 127.239 70.6307 127.239 69.8636C127.239 69.2727 127.088 68.7273 126.787 68.2273C126.486 67.7216 126.057 67.3182 125.5 67.017C124.943 66.7102 124.284 66.5568 123.523 66.5568H119.227V72.625ZM119.227 64.7159H123.148C123.784 64.7159 124.358 64.5909 124.869 64.3409C125.386 64.0909 125.795 63.7386 126.097 63.2841C126.403 62.8295 126.557 62.2955 126.557 61.6818C126.557 60.9148 126.29 60.2642 125.756 59.7301C125.222 59.1903 124.375 58.9205 123.216 58.9205H119.227V64.7159Z" fill="#00FFF7"/>
<rect x="155.5" y="44.5" width="44" height="44" rx="22" fill="#00FFF7"/>
<rect x="155.5" y="44.5" width="44" height="44" rx="22" stroke="#00FFF7"/>
<path d="M185.159 62.5H183.045C182.92 61.892 182.702 61.358 182.389 60.8977C182.082 60.4375 181.707 60.0511 181.264 59.7386C180.827 59.4205 180.341 59.1818 179.807 59.0227C179.273 58.8636 178.716 58.7841 178.136 58.7841C177.08 58.7841 176.122 59.0511 175.264 59.5852C174.412 60.1193 173.733 60.9062 173.227 61.946C172.727 62.9858 172.477 64.2614 172.477 65.7727C172.477 67.2841 172.727 68.5597 173.227 69.5994C173.733 70.6392 174.412 71.4261 175.264 71.9602C176.122 72.4943 177.08 72.7614 178.136 72.7614C178.716 72.7614 179.273 72.6818 179.807 72.5227C180.341 72.3636 180.827 72.1278 181.264 71.8153C181.707 71.4972 182.082 71.108 182.389 70.6477C182.702 70.1818 182.92 69.6477 183.045 69.0455H185.159C185 69.9375 184.71 70.7358 184.29 71.4403C183.869 72.1449 183.347 72.7443 182.722 73.2386C182.097 73.7273 181.395 74.0994 180.616 74.3551C179.844 74.6108 179.017 74.7386 178.136 74.7386C176.648 74.7386 175.324 74.375 174.165 73.6477C173.006 72.9205 172.094 71.8864 171.429 70.5455C170.764 69.2045 170.432 67.6136 170.432 65.7727C170.432 63.9318 170.764 62.3409 171.429 61C172.094 59.6591 173.006 58.625 174.165 57.8977C175.324 57.1705 176.648 56.8068 178.136 56.8068C179.017 56.8068 179.844 56.9347 180.616 57.1903C181.395 57.446 182.097 57.821 182.722 58.3153C183.347 58.804 183.869 59.4006 184.29 60.1051C184.71 60.804 185 61.6023 185.159 62.5Z" fill="#011E22"/>
<rect x="210.5" y="44.5" width="44" height="44" rx="22" fill="#011E22" fill-opacity="0.5"/>
<rect x="210.5" y="44.5" width="44" height="44" rx="22" stroke="#00FFF7"/>
<path d="M231.5 74.5H226.114V57.0455H231.739C233.432 57.0455 234.881 57.3949 236.085 58.0938C237.29 58.7869 238.213 59.7841 238.855 61.0852C239.497 62.3807 239.818 63.9318 239.818 65.7386C239.818 67.5568 239.494 69.1222 238.847 70.4347C238.199 71.7415 237.256 72.7472 236.017 73.4517C234.778 74.1506 233.273 74.5 231.5 74.5ZM228.227 72.625H231.364C232.807 72.625 234.003 72.3466 234.952 71.7898C235.901 71.233 236.608 70.4403 237.074 69.4119C237.54 68.3835 237.773 67.1591 237.773 65.7386C237.773 64.3295 237.543 63.1165 237.082 62.0994C236.622 61.0767 235.935 60.2926 235.02 59.7472C234.105 59.196 232.966 58.9205 231.602 58.9205H228.227V72.625Z" fill="#00FFF7"/>
<path d="M74.7505 123.455H78.5431L82.5488 133.227H82.7193L86.725 123.455H90.5176V138H87.5346V128.533H87.4139L83.6497 137.929H81.6184L77.8542 128.497H77.7335V138H74.7505V123.455ZM99.9902 133.355V127.091H103.016V138H100.111V136.018H99.9973C99.7511 136.658 99.3416 137.171 98.7686 137.56C98.2005 137.948 97.5068 138.142 96.6877 138.142C95.9585 138.142 95.3169 137.976 94.763 137.645C94.209 137.313 93.7757 136.842 93.4632 136.232C93.1555 135.621 92.9992 134.889 92.9945 134.037V127.091H96.0201V133.497C96.0248 134.141 96.1976 134.65 96.5385 135.024C96.8794 135.398 97.3364 135.585 97.9093 135.585C98.2739 135.585 98.6148 135.502 98.932 135.337C99.2492 135.166 99.5049 134.915 99.699 134.584C99.8979 134.252 99.995 133.843 99.9902 133.355ZM108.461 123.455V138H105.436V123.455H108.461ZM116.688 127.091V129.364H110.118V127.091H116.688ZM111.61 124.477H114.635V134.648C114.635 134.927 114.678 135.145 114.763 135.301C114.848 135.453 114.967 135.559 115.118 135.621C115.274 135.682 115.454 135.713 115.658 135.713C115.8 135.713 115.942 135.701 116.084 135.678C116.226 135.649 116.335 135.628 116.411 135.614L116.887 137.865C116.735 137.912 116.522 137.967 116.247 138.028C115.973 138.095 115.639 138.135 115.246 138.149C114.517 138.178 113.878 138.08 113.328 137.858C112.784 137.635 112.36 137.29 112.057 136.821C111.754 136.352 111.605 135.76 111.61 135.045V124.477ZM118.659 138V127.091H121.684V138H118.659ZM120.178 125.685C119.729 125.685 119.343 125.536 119.021 125.237C118.704 124.934 118.545 124.572 118.545 124.151C118.545 123.734 118.704 123.376 119.021 123.078C119.343 122.775 119.729 122.624 120.178 122.624C120.628 122.624 121.012 122.775 121.329 123.078C121.651 123.376 121.812 123.734 121.812 124.151C121.812 124.572 121.651 124.934 121.329 125.237C121.012 125.536 120.628 125.685 120.178 125.685ZM124.108 142.091V127.091H127.091V128.923H127.226C127.358 128.63 127.55 128.331 127.801 128.028C128.057 127.721 128.388 127.465 128.795 127.261C129.207 127.053 129.719 126.949 130.329 126.949C131.125 126.949 131.859 127.157 132.531 127.574C133.203 127.986 133.741 128.608 134.143 129.442C134.546 130.27 134.747 131.31 134.747 132.56C134.747 133.777 134.55 134.804 134.157 135.642C133.769 136.475 133.239 137.107 132.567 137.538C131.899 137.964 131.151 138.178 130.322 138.178C129.735 138.178 129.236 138.08 128.824 137.886C128.416 137.692 128.083 137.448 127.822 137.155C127.562 136.857 127.363 136.556 127.226 136.253H127.133V142.091H124.108ZM127.069 132.545C127.069 133.194 127.159 133.76 127.339 134.243C127.519 134.726 127.78 135.102 128.121 135.372C128.461 135.637 128.876 135.77 129.363 135.77C129.856 135.77 130.273 135.635 130.613 135.365C130.954 135.09 131.212 134.712 131.388 134.229C131.568 133.741 131.657 133.18 131.657 132.545C131.657 131.916 131.57 131.362 131.395 130.884C131.22 130.405 130.961 130.031 130.621 129.761C130.28 129.491 129.861 129.357 129.363 129.357C128.871 129.357 128.454 129.487 128.113 129.747C127.777 130.008 127.519 130.377 127.339 130.855C127.159 131.333 127.069 131.897 127.069 132.545ZM139.79 123.455V138H136.764V123.455H139.79ZM147.185 138.213C146.063 138.213 145.097 137.986 144.287 137.531C143.482 137.072 142.862 136.423 142.426 135.585C141.991 134.742 141.773 133.746 141.773 132.595C141.773 131.473 141.991 130.488 142.426 129.641C142.862 128.793 143.475 128.133 144.266 127.659C145.061 127.186 145.994 126.949 147.064 126.949C147.784 126.949 148.454 127.065 149.074 127.297C149.699 127.524 150.244 127.867 150.708 128.327C151.176 128.786 151.541 129.364 151.801 130.06C152.062 130.751 152.192 131.561 152.192 132.489V133.32H142.98V131.445H149.344C149.344 131.009 149.249 130.623 149.06 130.287C148.87 129.951 148.608 129.688 148.271 129.499C147.94 129.304 147.554 129.207 147.114 129.207C146.655 129.207 146.247 129.314 145.892 129.527C145.542 129.735 145.267 130.017 145.068 130.372C144.869 130.723 144.768 131.113 144.763 131.544V133.327C144.763 133.866 144.862 134.333 145.061 134.726C145.265 135.119 145.551 135.422 145.921 135.635C146.29 135.848 146.728 135.955 147.235 135.955C147.571 135.955 147.878 135.907 148.158 135.812C148.437 135.718 148.676 135.576 148.875 135.386C149.074 135.197 149.226 134.965 149.33 134.69L152.128 134.875C151.986 135.547 151.695 136.134 151.254 136.636C150.819 137.134 150.255 137.522 149.564 137.801C148.878 138.076 148.084 138.213 147.185 138.213ZM171.686 128.547H168.575C168.518 128.144 168.402 127.787 168.227 127.474C168.052 127.157 167.827 126.887 167.552 126.665C167.278 126.442 166.961 126.272 166.601 126.153C166.246 126.035 165.86 125.976 165.443 125.976C164.69 125.976 164.034 126.163 163.476 126.537C162.917 126.906 162.484 127.446 162.176 128.156C161.868 128.862 161.714 129.719 161.714 130.727C161.714 131.764 161.868 132.635 162.176 133.341C162.488 134.046 162.924 134.579 163.483 134.939C164.041 135.299 164.688 135.479 165.422 135.479C165.834 135.479 166.215 135.424 166.565 135.315C166.92 135.206 167.235 135.048 167.51 134.839C167.784 134.626 168.012 134.368 168.192 134.065C168.376 133.762 168.504 133.417 168.575 133.028L171.686 133.043C171.605 133.71 171.404 134.354 171.082 134.974C170.765 135.59 170.336 136.142 169.797 136.629C169.262 137.112 168.622 137.496 167.879 137.78C167.14 138.059 166.305 138.199 165.372 138.199C164.075 138.199 162.915 137.905 161.892 137.318C160.874 136.731 160.069 135.881 159.477 134.768C158.89 133.656 158.596 132.309 158.596 130.727C158.596 129.141 158.895 127.792 159.491 126.679C160.088 125.566 160.898 124.719 161.92 124.136C162.943 123.549 164.094 123.256 165.372 123.256C166.215 123.256 166.996 123.374 167.716 123.611C168.44 123.848 169.082 124.193 169.64 124.648C170.199 125.098 170.654 125.649 171.004 126.303C171.359 126.956 171.586 127.704 171.686 128.547ZM176.86 131.693V138H173.834V123.455H176.775V129.016H176.903C177.149 128.372 177.546 127.867 178.096 127.503C178.645 127.134 179.334 126.949 180.162 126.949C180.92 126.949 181.581 127.115 182.144 127.446C182.712 127.773 183.153 128.244 183.465 128.859C183.782 129.47 183.939 130.202 183.934 131.054V138H180.908V131.594C180.913 130.921 180.742 130.398 180.397 130.024C180.056 129.65 179.578 129.463 178.962 129.463C178.55 129.463 178.186 129.551 177.868 129.726C177.556 129.901 177.31 130.157 177.13 130.493C176.955 130.824 176.865 131.224 176.86 131.693ZM191.244 138.213C190.141 138.213 189.186 137.979 188.382 137.51C187.581 137.036 186.963 136.378 186.528 135.536C186.092 134.688 185.874 133.705 185.874 132.588C185.874 131.461 186.092 130.476 186.528 129.634C186.963 128.786 187.581 128.128 188.382 127.659C189.186 127.186 190.141 126.949 191.244 126.949C192.347 126.949 193.299 127.186 194.099 127.659C194.904 128.128 195.524 128.786 195.96 129.634C196.395 130.476 196.613 131.461 196.613 132.588C196.613 133.705 196.395 134.688 195.96 135.536C195.524 136.378 194.904 137.036 194.099 137.51C193.299 137.979 192.347 138.213 191.244 138.213ZM191.258 135.869C191.76 135.869 192.179 135.727 192.515 135.443C192.851 135.154 193.105 134.761 193.275 134.264C193.45 133.767 193.538 133.201 193.538 132.567C193.538 131.932 193.45 131.366 193.275 130.869C193.105 130.372 192.851 129.979 192.515 129.69C192.179 129.402 191.76 129.257 191.258 129.257C190.751 129.257 190.325 129.402 189.98 129.69C189.639 129.979 189.381 130.372 189.205 130.869C189.035 131.366 188.95 131.932 188.95 132.567C188.95 133.201 189.035 133.767 189.205 134.264C189.381 134.761 189.639 135.154 189.98 135.443C190.325 135.727 190.751 135.869 191.258 135.869ZM198.58 138V127.091H201.606V138H198.58ZM200.1 125.685C199.651 125.685 199.265 125.536 198.943 125.237C198.625 124.934 198.467 124.572 198.467 124.151C198.467 123.734 198.625 123.376 198.943 123.078C199.265 122.775 199.651 122.624 200.1 122.624C200.55 122.624 200.934 122.775 201.251 123.078C201.573 123.376 201.734 123.734 201.734 124.151C201.734 124.572 201.573 124.934 201.251 125.237C200.934 125.536 200.55 125.685 200.1 125.685ZM208.959 138.213C207.841 138.213 206.88 137.976 206.075 137.503C205.275 137.025 204.659 136.362 204.229 135.514C203.802 134.667 203.589 133.691 203.589 132.588C203.589 131.471 203.805 130.491 204.236 129.648C204.671 128.8 205.289 128.14 206.089 127.666C206.89 127.188 207.841 126.949 208.944 126.949C209.896 126.949 210.729 127.122 211.444 127.467C212.159 127.813 212.725 128.298 213.142 128.923C213.559 129.548 213.788 130.282 213.831 131.125H210.976C210.895 130.58 210.682 130.143 210.336 129.811C209.996 129.475 209.548 129.307 208.994 129.307C208.525 129.307 208.116 129.435 207.765 129.69C207.42 129.941 207.15 130.308 206.956 130.791C206.762 131.274 206.665 131.859 206.665 132.545C206.665 133.241 206.759 133.833 206.949 134.321C207.143 134.809 207.415 135.18 207.765 135.436C208.116 135.692 208.525 135.82 208.994 135.82C209.34 135.82 209.65 135.749 209.925 135.607C210.204 135.464 210.434 135.259 210.613 134.989C210.798 134.714 210.919 134.385 210.976 134.001H213.831C213.783 134.835 213.556 135.569 213.149 136.203C212.747 136.833 212.19 137.325 211.48 137.68C210.77 138.036 209.929 138.213 208.959 138.213ZM220.74 138.213C219.617 138.213 218.651 137.986 217.842 137.531C217.037 137.072 216.417 136.423 215.981 135.585C215.545 134.742 215.328 133.746 215.328 132.595C215.328 131.473 215.545 130.488 215.981 129.641C216.417 128.793 217.03 128.133 217.82 127.659C218.616 127.186 219.549 126.949 220.619 126.949C221.338 126.949 222.008 127.065 222.629 127.297C223.254 127.524 223.798 127.867 224.262 128.327C224.731 128.786 225.096 129.364 225.356 130.06C225.616 130.751 225.747 131.561 225.747 132.489V133.32H216.535V131.445H222.899C222.899 131.009 222.804 130.623 222.615 130.287C222.425 129.951 222.162 129.688 221.826 129.499C221.495 129.304 221.109 129.207 220.669 129.207C220.209 129.207 219.802 129.314 219.447 129.527C219.097 129.735 218.822 130.017 218.623 130.372C218.424 130.723 218.322 131.113 218.318 131.544V133.327C218.318 133.866 218.417 134.333 218.616 134.726C218.82 135.119 219.106 135.422 219.475 135.635C219.845 135.848 220.283 135.955 220.789 135.955C221.125 135.955 221.433 135.907 221.713 135.812C221.992 135.718 222.231 135.576 222.43 135.386C222.629 135.197 222.78 134.965 222.884 134.69L225.683 134.875C225.541 135.547 225.249 136.134 224.809 136.636C224.374 137.134 223.81 137.522 223.119 137.801C222.432 138.076 221.639 138.213 220.74 138.213Z" fill="#00FFF7"/>
<path d="M48.4055 160H46.9964C46.9131 159.595 46.7673 159.239 46.5589 158.932C46.3544 158.625 46.1044 158.367 45.8089 158.159C45.5173 157.947 45.1934 157.788 44.8374 157.682C44.4813 157.576 44.1101 157.523 43.7237 157.523C43.0192 157.523 42.3809 157.701 41.8089 158.057C41.2408 158.413 40.7881 158.938 40.451 159.631C40.1177 160.324 39.951 161.174 39.951 162.182C39.951 163.189 40.1177 164.04 40.451 164.733C40.7881 165.426 41.2408 165.951 41.8089 166.307C42.3809 166.663 43.0192 166.841 43.7237 166.841C44.1101 166.841 44.4813 166.788 44.8374 166.682C45.1934 166.576 45.5173 166.419 45.8089 166.21C46.1044 165.998 46.3544 165.739 46.5589 165.432C46.7673 165.121 46.9131 164.765 46.9964 164.364H48.4055C48.2995 164.958 48.1063 165.491 47.826 165.96C47.5457 166.43 47.1972 166.83 46.7805 167.159C46.3639 167.485 45.8961 167.733 45.3771 167.903C44.862 168.074 44.3108 168.159 43.7237 168.159C42.7313 168.159 41.8487 167.917 41.076 167.432C40.3033 166.947 39.6953 166.258 39.2521 165.364C38.8089 164.47 38.5874 163.409 38.5874 162.182C38.5874 160.955 38.8089 159.894 39.2521 159C39.6953 158.106 40.3033 157.417 41.076 156.932C41.8487 156.447 42.7313 156.205 43.7237 156.205C44.3108 156.205 44.862 156.29 45.3771 156.46C45.8961 156.631 46.3639 156.881 46.7805 157.21C47.1972 157.536 47.5457 157.934 47.826 158.403C48.1063 158.869 48.2995 159.402 48.4055 160ZM50.5007 168V159.273H51.7962V160.591H51.8871C52.0462 160.159 52.334 159.809 52.7507 159.54C53.1674 159.271 53.6371 159.136 54.1598 159.136C54.2583 159.136 54.3814 159.138 54.5291 159.142C54.6768 159.146 54.7886 159.152 54.8643 159.159V160.523C54.8189 160.511 54.7147 160.494 54.5518 160.472C54.3928 160.445 54.2242 160.432 54.0462 160.432C53.6219 160.432 53.2431 160.521 52.9098 160.699C52.5803 160.873 52.3189 161.116 52.1257 161.426C51.9363 161.733 51.8416 162.083 51.8416 162.477V168H50.5007ZM59.8473 168.182C59.0064 168.182 58.281 167.996 57.6712 167.625C57.0651 167.25 56.5973 166.727 56.2678 166.057C55.942 165.383 55.7791 164.598 55.7791 163.705C55.7791 162.811 55.942 162.023 56.2678 161.341C56.5973 160.655 57.0556 160.121 57.6428 159.739C58.2337 159.352 58.9231 159.159 59.7109 159.159C60.1655 159.159 60.6143 159.235 61.0575 159.386C61.5007 159.538 61.9041 159.784 62.2678 160.125C62.6314 160.462 62.9212 160.909 63.1371 161.466C63.353 162.023 63.4609 162.708 63.4609 163.523V164.091H56.7337V162.932H62.0973C62.0973 162.439 61.9988 162 61.8018 161.614C61.6087 161.227 61.3321 160.922 60.9723 160.699C60.6162 160.475 60.1958 160.364 59.7109 160.364C59.1768 160.364 58.7147 160.496 58.3246 160.761C57.9382 161.023 57.6409 161.364 57.4325 161.784C57.2242 162.205 57.12 162.655 57.12 163.136V163.909C57.12 164.568 57.2337 165.127 57.4609 165.585C57.692 166.04 58.0121 166.386 58.4212 166.625C58.8303 166.86 59.3056 166.977 59.8473 166.977C60.1996 166.977 60.5178 166.928 60.8018 166.83C61.0897 166.727 61.3378 166.576 61.5462 166.375C61.7545 166.17 61.9155 165.917 62.0291 165.614L63.3246 165.977C63.1882 166.417 62.959 166.803 62.6371 167.136C62.3151 167.466 61.9174 167.723 61.4439 167.909C60.9704 168.091 60.4382 168.182 59.8473 168.182ZM68.0689 168.205C67.5159 168.205 67.014 168.1 66.5632 167.892C66.1125 167.68 65.7545 167.375 65.4893 166.977C65.2242 166.576 65.0916 166.091 65.0916 165.523C65.0916 165.023 65.1901 164.617 65.3871 164.307C65.584 163.992 65.8473 163.746 66.1768 163.568C66.5064 163.39 66.87 163.258 67.2678 163.17C67.6693 163.08 68.0727 163.008 68.478 162.955C69.0083 162.886 69.4382 162.835 69.7678 162.801C70.1011 162.763 70.3435 162.701 70.495 162.614C70.6503 162.527 70.728 162.375 70.728 162.159V162.114C70.728 161.553 70.5746 161.117 70.2678 160.807C69.9647 160.496 69.5045 160.341 68.8871 160.341C68.2469 160.341 67.745 160.481 67.3814 160.761C67.0178 161.042 66.7621 161.341 66.6143 161.659L65.3416 161.205C65.5689 160.674 65.8719 160.261 66.2507 159.966C66.6333 159.667 67.05 159.458 67.5007 159.341C67.9553 159.22 68.4022 159.159 68.8416 159.159C69.1219 159.159 69.4439 159.193 69.8075 159.261C70.175 159.326 70.5291 159.46 70.87 159.665C71.2147 159.869 71.5007 160.178 71.728 160.591C71.9553 161.004 72.0689 161.557 72.0689 162.25V168H70.728V166.818H70.6598C70.5689 167.008 70.4174 167.21 70.2053 167.426C69.9931 167.642 69.7109 167.826 69.3587 167.977C69.0064 168.129 68.5765 168.205 68.0689 168.205ZM68.2734 167C68.8037 167 69.2507 166.896 69.6143 166.688C69.9818 166.479 70.2583 166.21 70.4439 165.881C70.6333 165.551 70.728 165.205 70.728 164.841V163.614C70.6712 163.682 70.5462 163.744 70.353 163.801C70.1636 163.854 69.9439 163.902 69.6939 163.943C69.4477 163.981 69.2071 164.015 68.9723 164.045C68.7412 164.072 68.5537 164.095 68.4098 164.114C68.0613 164.159 67.7356 164.233 67.4325 164.335C67.1333 164.434 66.8909 164.583 66.7053 164.784C66.5234 164.981 66.4325 165.25 66.4325 165.591C66.4325 166.057 66.6049 166.409 66.9496 166.648C67.2981 166.883 67.7393 167 68.2734 167ZM78.3118 159.273V160.409H73.7891V159.273H78.3118ZM75.1072 157.182H76.4482V165.5C76.4482 165.879 76.5031 166.163 76.6129 166.352C76.7266 166.538 76.8705 166.663 77.0447 166.727C77.2228 166.788 77.4103 166.818 77.6072 166.818C77.755 166.818 77.8762 166.811 77.9709 166.795C78.0656 166.777 78.1413 166.761 78.1982 166.75L78.4709 167.955C78.38 167.989 78.2531 168.023 78.0902 168.057C77.9273 168.095 77.7209 168.114 77.4709 168.114C77.0921 168.114 76.7209 168.032 76.3572 167.869C75.9974 167.706 75.6982 167.458 75.4595 167.125C75.2247 166.792 75.1072 166.371 75.1072 165.864V157.182ZM83.8942 168.182C83.0533 168.182 82.3279 167.996 81.718 167.625C81.112 167.25 80.6442 166.727 80.3146 166.057C79.9889 165.383 79.826 164.598 79.826 163.705C79.826 162.811 79.9889 162.023 80.3146 161.341C80.6442 160.655 81.1025 160.121 81.6896 159.739C82.2805 159.352 82.9699 159.159 83.7578 159.159C84.2124 159.159 84.6612 159.235 85.1044 159.386C85.5476 159.538 85.951 159.784 86.3146 160.125C86.6783 160.462 86.968 160.909 87.1839 161.466C87.3999 162.023 87.5078 162.708 87.5078 163.523V164.091H80.7805V162.932H86.1442C86.1442 162.439 86.0457 162 85.8487 161.614C85.6555 161.227 85.379 160.922 85.0192 160.699C84.6631 160.475 84.2427 160.364 83.7578 160.364C83.2237 160.364 82.7616 160.496 82.3714 160.761C81.9851 161.023 81.6877 161.364 81.4794 161.784C81.2711 162.205 81.1669 162.655 81.1669 163.136V163.909C81.1669 164.568 81.2805 165.127 81.5078 165.585C81.7389 166.04 82.0589 166.386 82.468 166.625C82.8771 166.86 83.3525 166.977 83.8942 166.977C84.2464 166.977 84.5646 166.928 84.8487 166.83C85.1366 166.727 85.3847 166.576 85.593 166.375C85.8014 166.17 85.9624 165.917 86.076 165.614L87.3714 165.977C87.2351 166.417 87.0059 166.803 86.6839 167.136C86.362 167.466 85.9643 167.723 85.4908 167.909C85.0173 168.091 84.4851 168.182 83.8942 168.182ZM100.002 171.273V166.659H99.8885C99.79 166.818 99.6499 167.019 99.468 167.261C99.2862 167.5 99.0268 167.714 98.6896 167.903C98.3525 168.089 97.9036 168.182 97.343 168.182C96.6158 168.182 95.9737 167.998 95.4169 167.631C94.8601 167.259 94.4245 166.737 94.1101 166.062C93.7957 165.384 93.6385 164.583 93.6385 163.659C93.6385 162.742 93.7957 161.947 94.1101 161.273C94.4245 160.598 94.862 160.078 95.4226 159.71C95.9832 159.343 96.6309 159.159 97.3658 159.159C97.9339 159.159 98.3828 159.254 98.7124 159.443C99.0457 159.629 99.2995 159.841 99.4737 160.08C99.6518 160.314 99.79 160.508 99.8885 160.659H100.048V159.273H101.343V171.273H100.002ZM97.5249 166.977C98.0627 166.977 98.5173 166.837 98.8885 166.557C99.2597 166.273 99.5419 165.881 99.7351 165.381C99.9283 164.877 100.025 164.295 100.025 163.636C100.025 162.985 99.9302 162.415 99.7408 161.926C99.5514 161.434 99.2711 161.051 98.8999 160.778C98.5286 160.502 98.0703 160.364 97.5249 160.364C96.9567 160.364 96.4832 160.509 96.1044 160.801C95.7294 161.089 95.4472 161.481 95.2578 161.977C95.0722 162.47 94.9794 163.023 94.9794 163.636C94.9794 164.258 95.0741 164.822 95.2635 165.33C95.4567 165.833 95.7408 166.235 96.1158 166.534C96.4946 166.83 96.9643 166.977 97.5249 166.977ZM109.298 164.432V159.273H110.638V168H109.298V166.523H109.207C109.002 166.966 108.684 167.343 108.252 167.653C107.82 167.96 107.275 168.114 106.616 168.114C106.07 168.114 105.585 167.994 105.161 167.756C104.737 167.513 104.404 167.15 104.161 166.665C103.919 166.176 103.798 165.561 103.798 164.818V159.273H105.138V164.727C105.138 165.364 105.317 165.871 105.673 166.25C106.032 166.629 106.491 166.818 107.048 166.818C107.381 166.818 107.72 166.733 108.065 166.562C108.413 166.392 108.705 166.131 108.94 165.778C109.178 165.426 109.298 164.977 109.298 164.432ZM116.754 168.182C115.913 168.182 115.187 167.996 114.577 167.625C113.971 167.25 113.504 166.727 113.174 166.057C112.848 165.383 112.685 164.598 112.685 163.705C112.685 162.811 112.848 162.023 113.174 161.341C113.504 160.655 113.962 160.121 114.549 159.739C115.14 159.352 115.829 159.159 116.617 159.159C117.072 159.159 117.521 159.235 117.964 159.386C118.407 159.538 118.81 159.784 119.174 160.125C119.538 160.462 119.827 160.909 120.043 161.466C120.259 162.023 120.367 162.708 120.367 163.523V164.091H113.64V162.932H119.004C119.004 162.439 118.905 162 118.708 161.614C118.515 161.227 118.238 160.922 117.879 160.699C117.522 160.475 117.102 160.364 116.617 160.364C116.083 160.364 115.621 160.496 115.231 160.761C114.844 161.023 114.547 161.364 114.339 161.784C114.13 162.205 114.026 162.655 114.026 163.136V163.909C114.026 164.568 114.14 165.127 114.367 165.585C114.598 166.04 114.918 166.386 115.327 166.625C115.737 166.86 116.212 166.977 116.754 166.977C117.106 166.977 117.424 166.928 117.708 166.83C117.996 166.727 118.244 166.576 118.452 166.375C118.661 166.17 118.822 165.917 118.935 165.614L120.231 165.977C120.094 166.417 119.865 166.803 119.543 167.136C119.221 167.466 118.824 167.723 118.35 167.909C117.877 168.091 117.344 168.182 116.754 168.182ZM128.589 161.227L127.384 161.568C127.308 161.367 127.197 161.172 127.049 160.983C126.905 160.79 126.708 160.631 126.458 160.506C126.208 160.381 125.888 160.318 125.498 160.318C124.964 160.318 124.519 160.441 124.163 160.688C123.81 160.93 123.634 161.239 123.634 161.614C123.634 161.947 123.755 162.21 123.998 162.403C124.24 162.597 124.619 162.758 125.134 162.886L126.43 163.205C127.21 163.394 127.791 163.684 128.174 164.074C128.557 164.46 128.748 164.958 128.748 165.568C128.748 166.068 128.604 166.515 128.316 166.909C128.032 167.303 127.634 167.614 127.123 167.841C126.612 168.068 126.017 168.182 125.339 168.182C124.449 168.182 123.712 167.989 123.129 167.602C122.545 167.216 122.176 166.652 122.021 165.909L123.293 165.591C123.415 166.061 123.644 166.413 123.981 166.648C124.322 166.883 124.767 167 125.316 167C125.941 167 126.437 166.867 126.805 166.602C127.176 166.333 127.362 166.011 127.362 165.636C127.362 165.333 127.255 165.08 127.043 164.875C126.831 164.667 126.505 164.511 126.066 164.409L124.612 164.068C123.812 163.879 123.225 163.585 122.85 163.188C122.479 162.786 122.293 162.284 122.293 161.682C122.293 161.189 122.432 160.754 122.708 160.375C122.988 159.996 123.369 159.699 123.85 159.483C124.335 159.267 124.884 159.159 125.498 159.159C126.362 159.159 127.04 159.348 127.532 159.727C128.028 160.106 128.38 160.606 128.589 161.227ZM134.562 159.273V160.409H130.039V159.273H134.562ZM131.357 157.182H132.698V165.5C132.698 165.879 132.753 166.163 132.863 166.352C132.977 166.538 133.121 166.663 133.295 166.727C133.473 166.788 133.66 166.818 133.857 166.818C134.005 166.818 134.126 166.811 134.221 166.795C134.316 166.777 134.391 166.761 134.448 166.75L134.721 167.955C134.63 167.989 134.503 168.023 134.34 168.057C134.177 168.095 133.971 168.114 133.721 168.114C133.342 168.114 132.971 168.032 132.607 167.869C132.247 167.706 131.948 167.458 131.71 167.125C131.475 166.792 131.357 166.371 131.357 165.864V157.182ZM136.579 168V159.273H137.92V168H136.579ZM137.261 157.818C136.999 157.818 136.774 157.729 136.585 157.551C136.399 157.373 136.306 157.159 136.306 156.909C136.306 156.659 136.399 156.445 136.585 156.267C136.774 156.089 136.999 156 137.261 156C137.522 156 137.746 156.089 137.931 156.267C138.121 156.445 138.215 156.659 138.215 156.909C138.215 157.159 138.121 157.373 137.931 157.551C137.746 157.729 137.522 157.818 137.261 157.818ZM143.921 168.182C143.133 168.182 142.442 167.994 141.847 167.619C141.256 167.244 140.794 166.72 140.461 166.045C140.131 165.371 139.967 164.583 139.967 163.682C139.967 162.773 140.131 161.979 140.461 161.301C140.794 160.623 141.256 160.097 141.847 159.722C142.442 159.347 143.133 159.159 143.921 159.159C144.709 159.159 145.398 159.347 145.989 159.722C146.584 160.097 147.046 160.623 147.376 161.301C147.709 161.979 147.876 162.773 147.876 163.682C147.876 164.583 147.709 165.371 147.376 166.045C147.046 166.72 146.584 167.244 145.989 167.619C145.398 167.994 144.709 168.182 143.921 168.182ZM143.921 166.977C144.52 166.977 145.012 166.824 145.398 166.517C145.785 166.21 146.071 165.807 146.256 165.307C146.442 164.807 146.535 164.265 146.535 163.682C146.535 163.098 146.442 162.555 146.256 162.051C146.071 161.547 145.785 161.14 145.398 160.83C145.012 160.519 144.52 160.364 143.921 160.364C143.323 160.364 142.83 160.519 142.444 160.83C142.058 161.14 141.772 161.547 141.586 162.051C141.4 162.555 141.308 163.098 141.308 163.682C141.308 164.265 141.4 164.807 141.586 165.307C141.772 165.807 142.058 166.21 142.444 166.517C142.83 166.824 143.323 166.977 143.921 166.977ZM151.263 162.75V168H149.923V159.273H151.218V160.636H151.332C151.536 160.193 151.847 159.837 152.263 159.568C152.68 159.295 153.218 159.159 153.877 159.159C154.468 159.159 154.985 159.28 155.428 159.523C155.871 159.761 156.216 160.125 156.462 160.614C156.709 161.098 156.832 161.712 156.832 162.455V168H155.491V162.545C155.491 161.86 155.313 161.326 154.957 160.943C154.601 160.557 154.112 160.364 153.491 160.364C153.063 160.364 152.68 160.456 152.343 160.642C152.01 160.828 151.746 161.098 151.553 161.455C151.36 161.811 151.263 162.242 151.263 162.75ZM165.464 161.227L164.259 161.568C164.183 161.367 164.072 161.172 163.924 160.983C163.78 160.79 163.583 160.631 163.333 160.506C163.083 160.381 162.763 160.318 162.373 160.318C161.839 160.318 161.394 160.441 161.038 160.688C160.685 160.93 160.509 161.239 160.509 161.614C160.509 161.947 160.63 162.21 160.873 162.403C161.115 162.597 161.494 162.758 162.009 162.886L163.305 163.205C164.085 163.394 164.666 163.684 165.049 164.074C165.432 164.46 165.623 164.958 165.623 165.568C165.623 166.068 165.479 166.515 165.191 166.909C164.907 167.303 164.509 167.614 163.998 167.841C163.487 168.068 162.892 168.182 162.214 168.182C161.324 168.182 160.587 167.989 160.004 167.602C159.42 167.216 159.051 166.652 158.896 165.909L160.168 165.591C160.29 166.061 160.519 166.413 160.856 166.648C161.197 166.883 161.642 167 162.191 167C162.816 167 163.312 166.867 163.68 166.602C164.051 166.333 164.237 166.011 164.237 165.636C164.237 165.333 164.13 165.08 163.918 164.875C163.706 164.667 163.38 164.511 162.941 164.409L161.487 164.068C160.687 163.879 160.1 163.585 159.725 163.188C159.354 162.786 159.168 162.284 159.168 161.682C159.168 161.189 159.307 160.754 159.583 160.375C159.863 159.996 160.244 159.699 160.725 159.483C161.21 159.267 161.759 159.159 162.373 159.159C163.237 159.159 163.915 159.348 164.407 159.727C164.903 160.106 165.255 160.606 165.464 161.227ZM174.119 168L171.46 159.273H172.869L174.755 165.955H174.846L176.71 159.273H178.141L179.982 165.932H180.073L181.96 159.273H183.369L180.71 168H179.391L177.482 161.295H177.346L175.437 168H174.119ZM185.141 168V159.273H186.482V168H185.141ZM185.823 157.818C185.562 157.818 185.336 157.729 185.147 157.551C184.961 157.373 184.869 157.159 184.869 156.909C184.869 156.659 184.961 156.445 185.147 156.267C185.336 156.089 185.562 156 185.823 156C186.085 156 186.308 156.089 186.494 156.267C186.683 156.445 186.778 156.659 186.778 156.909C186.778 157.159 186.683 157.373 186.494 157.551C186.308 157.729 186.085 157.818 185.823 157.818ZM192.734 159.273V160.409H188.211V159.273H192.734ZM189.529 157.182H190.87V165.5C190.87 165.879 190.925 166.163 191.035 166.352C191.148 166.538 191.292 166.663 191.467 166.727C191.645 166.788 191.832 166.818 192.029 166.818C192.177 166.818 192.298 166.811 192.393 166.795C192.487 166.777 192.563 166.761 192.62 166.75L192.893 167.955C192.802 167.989 192.675 168.023 192.512 168.057C192.349 168.095 192.143 168.114 191.893 168.114C191.514 168.114 191.143 168.032 190.779 167.869C190.419 167.706 190.12 167.458 189.881 167.125C189.647 166.792 189.529 166.371 189.529 165.864V157.182ZM196.279 162.75V168H194.938V156.364H196.279V160.636H196.393C196.597 160.186 196.904 159.828 197.313 159.562C197.726 159.294 198.275 159.159 198.961 159.159C199.556 159.159 200.076 159.278 200.523 159.517C200.97 159.752 201.317 160.114 201.563 160.602C201.813 161.087 201.938 161.705 201.938 162.455V168H200.597V162.545C200.597 161.852 200.417 161.316 200.058 160.938C199.701 160.555 199.207 160.364 198.575 160.364C198.135 160.364 197.741 160.456 197.393 160.642C197.048 160.828 196.775 161.098 196.575 161.455C196.378 161.811 196.279 162.242 196.279 162.75ZM211.46 168.205C210.906 168.205 210.405 168.1 209.954 167.892C209.503 167.68 209.145 167.375 208.88 166.977C208.615 166.576 208.482 166.091 208.482 165.523C208.482 165.023 208.581 164.617 208.778 164.307C208.975 163.992 209.238 163.746 209.567 163.568C209.897 163.39 210.261 163.258 210.658 163.17C211.06 163.08 211.463 163.008 211.869 162.955C212.399 162.886 212.829 162.835 213.158 162.801C213.492 162.763 213.734 162.701 213.886 162.614C214.041 162.527 214.119 162.375 214.119 162.159V162.114C214.119 161.553 213.965 161.117 213.658 160.807C213.355 160.496 212.895 160.341 212.278 160.341C211.638 160.341 211.136 160.481 210.772 160.761C210.408 161.042 210.153 161.341 210.005 161.659L208.732 161.205C208.96 160.674 209.263 160.261 209.641 159.966C210.024 159.667 210.441 159.458 210.891 159.341C211.346 159.22 211.793 159.159 212.232 159.159C212.513 159.159 212.835 159.193 213.198 159.261C213.566 159.326 213.92 159.46 214.261 159.665C214.605 159.869 214.891 160.178 215.119 160.591C215.346 161.004 215.46 161.557 215.46 162.25V168H214.119V166.818H214.05C213.96 167.008 213.808 167.21 213.596 167.426C213.384 167.642 213.102 167.826 212.749 167.977C212.397 168.129 211.967 168.205 211.46 168.205ZM211.664 167C212.194 167 212.641 166.896 213.005 166.688C213.372 166.479 213.649 166.21 213.835 165.881C214.024 165.551 214.119 165.205 214.119 164.841V163.614C214.062 163.682 213.937 163.744 213.744 163.801C213.554 163.854 213.335 163.902 213.085 163.943C212.838 163.981 212.598 164.015 212.363 164.045C212.132 164.072 211.944 164.095 211.8 164.114C211.452 164.159 211.126 164.233 210.823 164.335C210.524 164.434 210.281 164.583 210.096 164.784C209.914 164.981 209.823 165.25 209.823 165.591C209.823 166.057 209.996 166.409 210.34 166.648C210.689 166.883 211.13 167 211.664 167ZM219.248 162.75V168H217.907V159.273H219.202V160.636H219.316C219.521 160.193 219.831 159.837 220.248 159.568C220.665 159.295 221.202 159.159 221.862 159.159C222.452 159.159 222.969 159.28 223.413 159.523C223.856 159.761 224.201 160.125 224.447 160.614C224.693 161.098 224.816 161.712 224.816 162.455V168H223.475V162.545C223.475 161.86 223.297 161.326 222.941 160.943C222.585 160.557 222.096 160.364 221.475 160.364C221.047 160.364 220.665 160.456 220.327 160.642C219.994 160.828 219.731 161.098 219.538 161.455C219.344 161.811 219.248 162.242 219.248 162.75ZM233.448 161.227L232.244 161.568C232.168 161.367 232.056 161.172 231.908 160.983C231.764 160.79 231.567 160.631 231.317 160.506C231.067 160.381 230.747 160.318 230.357 160.318C229.823 160.318 229.378 160.441 229.022 160.688C228.67 160.93 228.494 161.239 228.494 161.614C228.494 161.947 228.615 162.21 228.857 162.403C229.1 162.597 229.478 162.758 229.994 162.886L231.289 163.205C232.069 163.394 232.651 163.684 233.033 164.074C233.416 164.46 233.607 164.958 233.607 165.568C233.607 166.068 233.463 166.515 233.175 166.909C232.891 167.303 232.494 167.614 231.982 167.841C231.471 168.068 230.876 168.182 230.198 168.182C229.308 168.182 228.571 167.989 227.988 167.602C227.405 167.216 227.035 166.652 226.88 165.909L228.153 165.591C228.274 166.061 228.503 166.413 228.84 166.648C229.181 166.883 229.626 167 230.175 167C230.8 167 231.297 166.867 231.664 166.602C232.035 166.333 232.221 166.011 232.221 165.636C232.221 165.333 232.115 165.08 231.903 164.875C231.691 164.667 231.365 164.511 230.925 164.409L229.471 164.068C228.672 163.879 228.085 163.585 227.71 163.188C227.338 162.786 227.153 162.284 227.153 161.682C227.153 161.189 227.291 160.754 227.567 160.375C227.848 159.996 228.228 159.699 228.71 159.483C229.194 159.267 229.744 159.159 230.357 159.159C231.221 159.159 231.899 159.348 232.391 159.727C232.888 160.106 233.24 160.606 233.448 161.227ZM237.603 168L234.944 159.273H236.353L238.239 165.955H238.33L240.194 159.273H241.626L243.467 165.932H243.558L245.444 159.273H246.853L244.194 168H242.876L240.967 161.295H240.83L238.921 168H237.603ZM251.988 168.182C251.147 168.182 250.422 167.996 249.812 167.625C249.206 167.25 248.738 166.727 248.408 166.057C248.083 165.383 247.92 164.598 247.92 163.705C247.92 162.811 248.083 162.023 248.408 161.341C248.738 160.655 249.196 160.121 249.783 159.739C250.374 159.352 251.064 159.159 251.852 159.159C252.306 159.159 252.755 159.235 253.198 159.386C253.641 159.538 254.045 159.784 254.408 160.125C254.772 160.462 255.062 160.909 255.278 161.466C255.494 162.023 255.602 162.708 255.602 163.523V164.091H248.874V162.932H254.238C254.238 162.439 254.139 162 253.942 161.614C253.749 161.227 253.473 160.922 253.113 160.699C252.757 160.475 252.336 160.364 251.852 160.364C251.317 160.364 250.855 160.496 250.465 160.761C250.079 161.023 249.781 161.364 249.573 161.784C249.365 162.205 249.261 162.655 249.261 163.136V163.909C249.261 164.568 249.374 165.127 249.602 165.585C249.833 166.04 250.153 166.386 250.562 166.625C250.971 166.86 251.446 166.977 251.988 166.977C252.34 166.977 252.658 166.928 252.942 166.83C253.23 166.727 253.478 166.576 253.687 166.375C253.895 166.17 254.056 165.917 254.17 165.614L255.465 165.977C255.329 166.417 255.1 166.803 254.778 167.136C254.456 167.466 254.058 167.723 253.585 167.909C253.111 168.091 252.579 168.182 251.988 168.182ZM257.641 168V159.273H258.937V160.591H259.028C259.187 160.159 259.475 159.809 259.891 159.54C260.308 159.271 260.778 159.136 261.3 159.136C261.399 159.136 261.522 159.138 261.67 159.142C261.817 159.146 261.929 159.152 262.005 159.159V160.523C261.96 160.511 261.855 160.494 261.692 160.472C261.533 160.445 261.365 160.432 261.187 160.432C260.763 160.432 260.384 160.521 260.05 160.699C259.721 160.873 259.46 161.116 259.266 161.426C259.077 161.733 258.982 162.083 258.982 162.477V168H257.641ZM72.554 187.182C71.7661 187.182 71.0748 186.994 70.4801 186.619C69.8892 186.244 69.4271 185.72 69.0938 185.045C68.7642 184.371 68.5994 183.583 68.5994 182.682C68.5994 181.773 68.7642 180.979 69.0938 180.301C69.4271 179.623 69.8892 179.097 70.4801 178.722C71.0748 178.347 71.7661 178.159 72.554 178.159C73.3419 178.159 74.0313 178.347 74.6222 178.722C75.2169 179.097 75.679 179.623 76.0085 180.301C76.3419 180.979 76.5085 181.773 76.5085 182.682C76.5085 183.583 76.3419 184.371 76.0085 185.045C75.679 185.72 75.2169 186.244 74.6222 186.619C74.0313 186.994 73.3419 187.182 72.554 187.182ZM72.554 185.977C73.1525 185.977 73.6449 185.824 74.0312 185.517C74.4176 185.21 74.7036 184.807 74.8892 184.307C75.0748 183.807 75.1676 183.265 75.1676 182.682C75.1676 182.098 75.0748 181.555 74.8892 181.051C74.7036 180.547 74.4176 180.14 74.0312 179.83C73.6449 179.519 73.1525 179.364 72.554 179.364C71.9555 179.364 71.4631 179.519 71.0767 179.83C70.6903 180.14 70.4044 180.547 70.2188 181.051C70.0331 181.555 69.9403 182.098 69.9403 182.682C69.9403 183.265 70.0331 183.807 70.2188 184.307C70.4044 184.807 70.6903 185.21 71.0767 185.517C71.4631 185.824 71.9555 185.977 72.554 185.977ZM78.5554 190.273V178.273H79.8509V179.659H80.0099C80.1084 179.508 80.2448 179.314 80.419 179.08C80.5971 178.841 80.8509 178.629 81.1804 178.443C81.5137 178.254 81.9645 178.159 82.5327 178.159C83.2675 178.159 83.9152 178.343 84.4759 178.71C85.0365 179.078 85.474 179.598 85.7884 180.273C86.1027 180.947 86.2599 181.742 86.2599 182.659C86.2599 183.583 86.1027 184.384 85.7884 185.062C85.474 185.737 85.0384 186.259 84.4815 186.631C83.9247 186.998 83.2827 187.182 82.5554 187.182C81.9948 187.182 81.5459 187.089 81.2088 186.903C80.8717 186.714 80.6122 186.5 80.4304 186.261C80.2486 186.019 80.1084 185.818 80.0099 185.659H79.8963V190.273H78.5554ZM79.8736 182.636C79.8736 183.295 79.9702 183.877 80.1634 184.381C80.3565 184.881 80.6387 185.273 81.0099 185.557C81.3812 185.837 81.8357 185.977 82.3736 185.977C82.9342 185.977 83.402 185.83 83.777 185.534C84.1558 185.235 84.4399 184.833 84.6293 184.33C84.8224 183.822 84.919 183.258 84.919 182.636C84.919 182.023 84.8243 181.47 84.6349 180.977C84.4493 180.481 84.1671 180.089 83.7884 179.801C83.4134 179.509 82.9418 179.364 82.3736 179.364C81.8281 179.364 81.3698 179.502 80.9986 179.778C80.6274 180.051 80.3471 180.434 80.1577 180.926C79.9683 181.415 79.8736 181.985 79.8736 182.636ZM92.1009 178.273V179.409H87.5781V178.273H92.1009ZM88.8963 176.182H90.2372V184.5C90.2372 184.879 90.2921 185.163 90.402 185.352C90.5156 185.538 90.6596 185.663 90.8338 185.727C91.0118 185.788 91.1993 185.818 91.3963 185.818C91.544 185.818 91.6652 185.811 91.7599 185.795C91.8546 185.777 91.9304 185.761 91.9872 185.75L92.2599 186.955C92.169 186.989 92.0421 187.023 91.8793 187.057C91.7164 187.095 91.5099 187.114 91.2599 187.114C90.8812 187.114 90.5099 187.032 90.1463 186.869C89.7865 186.706 89.4872 186.458 89.2486 186.125C89.0137 185.792 88.8963 185.371 88.8963 184.864V176.182ZM94.1179 187V178.273H95.4588V187H94.1179ZM94.7997 176.818C94.5384 176.818 94.313 176.729 94.1236 176.551C93.938 176.373 93.8452 176.159 93.8452 175.909C93.8452 175.659 93.938 175.445 94.1236 175.267C94.313 175.089 94.5384 175 94.7997 175C95.0611 175 95.2846 175.089 95.4702 175.267C95.6596 175.445 95.7543 175.659 95.7543 175.909C95.7543 176.159 95.6596 176.373 95.4702 176.551C95.2846 176.729 95.0611 176.818 94.7997 176.818ZM101.46 187.182C100.672 187.182 99.9811 186.994 99.3864 186.619C98.7955 186.244 98.3333 185.72 98 185.045C97.6705 184.371 97.5057 183.583 97.5057 182.682C97.5057 181.773 97.6705 180.979 98 180.301C98.3333 179.623 98.7955 179.097 99.3864 178.722C99.9811 178.347 100.672 178.159 101.46 178.159C102.248 178.159 102.938 178.347 103.528 178.722C104.123 179.097 104.585 179.623 104.915 180.301C105.248 180.979 105.415 181.773 105.415 182.682C105.415 183.583 105.248 184.371 104.915 185.045C104.585 185.72 104.123 186.244 103.528 186.619C102.938 186.994 102.248 187.182 101.46 187.182ZM101.46 185.977C102.059 185.977 102.551 185.824 102.938 185.517C103.324 185.21 103.61 184.807 103.795 184.307C103.981 183.807 104.074 183.265 104.074 182.682C104.074 182.098 103.981 181.555 103.795 181.051C103.61 180.547 103.324 180.14 102.938 179.83C102.551 179.519 102.059 179.364 101.46 179.364C100.862 179.364 100.369 179.519 99.983 179.83C99.5966 180.14 99.3106 180.547 99.125 181.051C98.9394 181.555 98.8466 182.098 98.8466 182.682C98.8466 183.265 98.9394 183.807 99.125 184.307C99.3106 184.807 99.5966 185.21 99.983 185.517C100.369 185.824 100.862 185.977 101.46 185.977ZM108.803 181.75V187H107.462V178.273H108.757V179.636H108.871C109.075 179.193 109.386 178.837 109.803 178.568C110.219 178.295 110.757 178.159 111.416 178.159C112.007 178.159 112.524 178.28 112.967 178.523C113.411 178.761 113.755 179.125 114.001 179.614C114.248 180.098 114.371 180.712 114.371 181.455V187H113.03V181.545C113.03 180.86 112.852 180.326 112.496 179.943C112.14 179.557 111.651 179.364 111.03 179.364C110.602 179.364 110.219 179.456 109.882 179.642C109.549 179.828 109.286 180.098 109.092 180.455C108.899 180.811 108.803 181.242 108.803 181.75ZM123.003 180.227L121.798 180.568C121.723 180.367 121.611 180.172 121.463 179.983C121.319 179.79 121.122 179.631 120.872 179.506C120.622 179.381 120.302 179.318 119.912 179.318C119.378 179.318 118.933 179.441 118.577 179.688C118.224 179.93 118.048 180.239 118.048 180.614C118.048 180.947 118.17 181.21 118.412 181.403C118.654 181.597 119.033 181.758 119.548 181.886L120.844 182.205C121.624 182.394 122.205 182.684 122.588 183.074C122.971 183.46 123.162 183.958 123.162 184.568C123.162 185.068 123.018 185.515 122.73 185.909C122.446 186.303 122.048 186.614 121.537 186.841C121.026 187.068 120.431 187.182 119.753 187.182C118.863 187.182 118.126 186.989 117.543 186.602C116.959 186.216 116.59 185.652 116.435 184.909L117.707 184.591C117.829 185.061 118.058 185.413 118.395 185.648C118.736 185.883 119.181 186 119.73 186C120.355 186 120.851 185.867 121.219 185.602C121.59 185.333 121.776 185.011 121.776 184.636C121.776 184.333 121.67 184.08 121.457 183.875C121.245 183.667 120.92 183.511 120.48 183.409L119.026 183.068C118.226 182.879 117.639 182.585 117.264 182.188C116.893 181.786 116.707 181.284 116.707 180.682C116.707 180.189 116.846 179.754 117.122 179.375C117.402 178.996 117.783 178.699 118.264 178.483C118.749 178.267 119.298 178.159 119.912 178.159C120.776 178.159 121.454 178.348 121.946 178.727C122.442 179.106 122.795 179.606 123.003 180.227ZM133.567 178.273V179.409H128.862V178.273H133.567ZM130.271 187V177.068C130.271 176.568 130.389 176.152 130.624 175.818C130.858 175.485 131.163 175.235 131.538 175.068C131.913 174.902 132.309 174.818 132.726 174.818C133.055 174.818 133.324 174.845 133.533 174.898C133.741 174.951 133.896 175 133.999 175.045L133.612 176.205C133.544 176.182 133.449 176.153 133.328 176.119C133.211 176.085 133.055 176.068 132.862 176.068C132.419 176.068 132.099 176.18 131.902 176.403C131.709 176.627 131.612 176.955 131.612 177.386V187H130.271ZM138.632 187.182C137.844 187.182 137.153 186.994 136.558 186.619C135.967 186.244 135.505 185.72 135.172 185.045C134.842 184.371 134.678 183.583 134.678 182.682C134.678 181.773 134.842 180.979 135.172 180.301C135.505 179.623 135.967 179.097 136.558 178.722C137.153 178.347 137.844 178.159 138.632 178.159C139.42 178.159 140.109 178.347 140.7 178.722C141.295 179.097 141.757 179.623 142.087 180.301C142.42 180.979 142.587 181.773 142.587 182.682C142.587 183.583 142.42 184.371 142.087 185.045C141.757 185.72 141.295 186.244 140.7 186.619C140.109 186.994 139.42 187.182 138.632 187.182ZM138.632 185.977C139.231 185.977 139.723 185.824 140.109 185.517C140.496 185.21 140.782 184.807 140.967 184.307C141.153 183.807 141.246 183.265 141.246 182.682C141.246 182.098 141.153 181.555 140.967 181.051C140.782 180.547 140.496 180.14 140.109 179.83C139.723 179.519 139.231 179.364 138.632 179.364C138.034 179.364 137.541 179.519 137.155 179.83C136.768 180.14 136.482 180.547 136.297 181.051C136.111 181.555 136.018 182.098 136.018 182.682C136.018 183.265 136.111 183.807 136.297 184.307C136.482 184.807 136.768 185.21 137.155 185.517C137.541 185.824 138.034 185.977 138.632 185.977ZM144.634 187V178.273H145.929V179.591H146.02C146.179 179.159 146.467 178.809 146.884 178.54C147.3 178.271 147.77 178.136 148.293 178.136C148.391 178.136 148.514 178.138 148.662 178.142C148.81 178.146 148.921 178.152 148.997 178.159V179.523C148.952 179.511 148.848 179.494 148.685 179.472C148.526 179.445 148.357 179.432 148.179 179.432C147.755 179.432 147.376 179.521 147.043 179.699C146.713 179.873 146.452 180.116 146.259 180.426C146.069 180.733 145.974 181.083 145.974 181.477V187H144.634ZM158.746 187.182C157.905 187.182 157.179 186.996 156.57 186.625C155.964 186.25 155.496 185.727 155.166 185.057C154.84 184.383 154.678 183.598 154.678 182.705C154.678 181.811 154.84 181.023 155.166 180.341C155.496 179.655 155.954 179.121 156.541 178.739C157.132 178.352 157.821 178.159 158.609 178.159C159.064 178.159 159.513 178.235 159.956 178.386C160.399 178.538 160.803 178.784 161.166 179.125C161.53 179.462 161.82 179.909 162.036 180.466C162.251 181.023 162.359 181.708 162.359 182.523V183.091H155.632V181.932H160.996C160.996 181.439 160.897 181 160.7 180.614C160.507 180.227 160.231 179.922 159.871 179.699C159.515 179.475 159.094 179.364 158.609 179.364C158.075 179.364 157.613 179.496 157.223 179.761C156.837 180.023 156.539 180.364 156.331 180.784C156.123 181.205 156.018 181.655 156.018 182.136V182.909C156.018 183.568 156.132 184.127 156.359 184.585C156.59 185.04 156.911 185.386 157.32 185.625C157.729 185.86 158.204 185.977 158.746 185.977C159.098 185.977 159.416 185.928 159.7 185.83C159.988 185.727 160.236 185.576 160.445 185.375C160.653 185.17 160.814 184.917 160.928 184.614L162.223 184.977C162.087 185.417 161.857 185.803 161.536 186.136C161.214 186.466 160.816 186.723 160.342 186.909C159.869 187.091 159.337 187.182 158.746 187.182ZM166.967 187.205C166.414 187.205 165.912 187.1 165.462 186.892C165.011 186.68 164.653 186.375 164.388 185.977C164.123 185.576 163.99 185.091 163.99 184.523C163.99 184.023 164.089 183.617 164.286 183.307C164.482 182.992 164.746 182.746 165.075 182.568C165.405 182.39 165.768 182.258 166.166 182.17C166.568 182.08 166.971 182.008 167.376 181.955C167.907 181.886 168.337 181.835 168.666 181.801C169 181.763 169.242 181.701 169.393 181.614C169.549 181.527 169.626 181.375 169.626 181.159V181.114C169.626 180.553 169.473 180.117 169.166 179.807C168.863 179.496 168.403 179.341 167.786 179.341C167.145 179.341 166.643 179.481 166.28 179.761C165.916 180.042 165.661 180.341 165.513 180.659L164.24 180.205C164.467 179.674 164.77 179.261 165.149 178.966C165.532 178.667 165.948 178.458 166.399 178.341C166.854 178.22 167.301 178.159 167.74 178.159C168.02 178.159 168.342 178.193 168.706 178.261C169.073 178.326 169.428 178.46 169.768 178.665C170.113 178.869 170.399 179.178 170.626 179.591C170.854 180.004 170.967 180.557 170.967 181.25V187H169.626V185.818H169.558C169.467 186.008 169.316 186.21 169.104 186.426C168.892 186.642 168.609 186.826 168.257 186.977C167.905 187.129 167.475 187.205 166.967 187.205ZM167.172 186C167.702 186 168.149 185.896 168.513 185.688C168.88 185.479 169.157 185.21 169.342 184.881C169.532 184.551 169.626 184.205 169.626 183.841V182.614C169.57 182.682 169.445 182.744 169.251 182.801C169.062 182.854 168.842 182.902 168.592 182.943C168.346 182.981 168.106 183.015 167.871 183.045C167.64 183.072 167.452 183.095 167.308 183.114C166.96 183.159 166.634 183.233 166.331 183.335C166.032 183.434 165.789 183.583 165.604 183.784C165.422 183.981 165.331 184.25 165.331 184.591C165.331 185.057 165.503 185.409 165.848 185.648C166.196 185.883 166.638 186 167.172 186ZM176.96 187.182C176.142 187.182 175.438 186.989 174.847 186.602C174.256 186.216 173.801 185.684 173.483 185.006C173.165 184.328 173.006 183.553 173.006 182.682C173.006 181.795 173.169 181.013 173.494 180.335C173.824 179.653 174.282 179.121 174.869 178.739C175.46 178.352 176.15 178.159 176.938 178.159C177.551 178.159 178.104 178.273 178.597 178.5C179.089 178.727 179.492 179.045 179.807 179.455C180.121 179.864 180.316 180.341 180.392 180.886H179.051C178.949 180.489 178.722 180.136 178.369 179.83C178.021 179.519 177.551 179.364 176.96 179.364C176.438 179.364 175.979 179.5 175.585 179.773C175.195 180.042 174.89 180.422 174.67 180.915C174.455 181.403 174.347 181.977 174.347 182.636C174.347 183.311 174.453 183.898 174.665 184.398C174.881 184.898 175.184 185.286 175.574 185.562C175.968 185.839 176.43 185.977 176.96 185.977C177.309 185.977 177.625 185.917 177.909 185.795C178.193 185.674 178.434 185.5 178.631 185.273C178.828 185.045 178.968 184.773 179.051 184.455H180.392C180.316 184.97 180.129 185.434 179.83 185.847C179.534 186.256 179.142 186.581 178.653 186.824C178.169 187.062 177.604 187.182 176.96 187.182ZM183.693 181.75V187H182.352V175.364H183.693V179.636H183.807C184.011 179.186 184.318 178.828 184.727 178.562C185.14 178.294 185.689 178.159 186.375 178.159C186.97 178.159 187.491 178.278 187.938 178.517C188.384 178.752 188.731 179.114 188.977 179.602C189.227 180.087 189.352 180.705 189.352 181.455V187H188.011V181.545C188.011 180.852 187.831 180.316 187.472 179.938C187.116 179.555 186.621 179.364 185.989 179.364C185.549 179.364 185.155 179.456 184.807 179.642C184.462 179.828 184.189 180.098 183.989 180.455C183.792 180.811 183.693 181.242 183.693 181.75ZM196.305 187V178.273H197.646V187H196.305ZM196.987 176.818C196.726 176.818 196.5 176.729 196.311 176.551C196.125 176.373 196.033 176.159 196.033 175.909C196.033 175.659 196.125 175.445 196.311 175.267C196.5 175.089 196.726 175 196.987 175C197.249 175 197.472 175.089 197.658 175.267C197.847 175.445 197.942 175.659 197.942 175.909C197.942 176.159 197.847 176.373 197.658 176.551C197.472 176.729 197.249 176.818 196.987 176.818ZM203.898 178.273V179.409H199.375V178.273H203.898ZM200.693 176.182H202.034V184.5C202.034 184.879 202.089 185.163 202.199 185.352C202.313 185.538 202.456 185.663 202.631 185.727C202.809 185.788 202.996 185.818 203.193 185.818C203.341 185.818 203.462 185.811 203.557 185.795C203.652 185.777 203.727 185.761 203.784 185.75L204.057 186.955C203.966 186.989 203.839 187.023 203.676 187.057C203.513 187.095 203.307 187.114 203.057 187.114C202.678 187.114 202.307 187.032 201.943 186.869C201.583 186.706 201.284 186.458 201.045 186.125C200.811 185.792 200.693 185.371 200.693 184.864V176.182ZM209.48 187.182C208.639 187.182 207.914 186.996 207.304 186.625C206.698 186.25 206.23 185.727 205.901 185.057C205.575 184.383 205.412 183.598 205.412 182.705C205.412 181.811 205.575 181.023 205.901 180.341C206.23 179.655 206.688 179.121 207.276 178.739C207.866 178.352 208.556 178.159 209.344 178.159C209.798 178.159 210.247 178.235 210.69 178.386C211.134 178.538 211.537 178.784 211.901 179.125C212.264 179.462 212.554 179.909 212.77 180.466C212.986 181.023 213.094 181.708 213.094 182.523V183.091H206.366V181.932H211.73C211.73 181.439 211.632 181 211.435 180.614C211.241 180.227 210.965 179.922 210.605 179.699C210.249 179.475 209.829 179.364 209.344 179.364C208.81 179.364 208.348 179.496 207.957 179.761C207.571 180.023 207.274 180.364 207.065 180.784C206.857 181.205 206.753 181.655 206.753 182.136V182.909C206.753 183.568 206.866 184.127 207.094 184.585C207.325 185.04 207.645 185.386 208.054 185.625C208.463 185.86 208.938 185.977 209.48 185.977C209.832 185.977 210.151 185.928 210.435 185.83C210.723 185.727 210.971 185.576 211.179 185.375C211.387 185.17 211.548 184.917 211.662 184.614L212.957 184.977C212.821 185.417 212.592 185.803 212.27 186.136C211.948 186.466 211.55 186.723 211.077 186.909C210.603 187.091 210.071 187.182 209.48 187.182ZM215.134 187V178.273H216.429V179.636H216.543C216.724 179.17 217.018 178.809 217.423 178.551C217.829 178.29 218.315 178.159 218.884 178.159C219.459 178.159 219.938 178.29 220.321 178.551C220.707 178.809 221.009 179.17 221.224 179.636H221.315C221.539 179.186 221.874 178.828 222.321 178.562C222.768 178.294 223.304 178.159 223.929 178.159C224.709 178.159 225.348 178.403 225.844 178.892C226.34 179.377 226.588 180.133 226.588 181.159V187H225.247V181.159C225.247 180.515 225.071 180.055 224.719 179.778C224.366 179.502 223.952 179.364 223.474 179.364C222.861 179.364 222.385 179.549 222.048 179.92C221.711 180.288 221.543 180.754 221.543 181.318V187H220.179V181.023C220.179 180.527 220.018 180.127 219.696 179.824C219.374 179.517 218.959 179.364 218.452 179.364C218.103 179.364 217.777 179.456 217.474 179.642C217.175 179.828 216.933 180.085 216.747 180.415C216.565 180.741 216.474 181.117 216.474 181.545V187H215.134ZM230.017 187.091C229.737 187.091 229.496 186.991 229.295 186.79C229.095 186.589 228.994 186.348 228.994 186.068C228.994 185.788 229.095 185.547 229.295 185.347C229.496 185.146 229.737 185.045 230.017 185.045C230.297 185.045 230.538 185.146 230.739 185.347C230.939 185.547 231.04 185.788 231.04 186.068C231.04 186.254 230.992 186.424 230.898 186.58C230.807 186.735 230.684 186.86 230.528 186.955C230.377 187.045 230.206 187.091 230.017 187.091Z" fill="white"/>
</svg>
